<svg width="24" height="24" viewBox="0 0 24 24" fill="none" xmlns="http://www.w3.org/2000/svg">
<path fill-rule="evenodd" clip-rule="evenodd" d="M22 12C22 17.5228 17.5228 22 12 22C6.47715 22 2 17.5228 2 12C2 6.47715 6.47715 2 12 2C17.5228 2 22 6.47715 22 12ZM24 12C24 18.6274 18.6274 24 12 24C5.37258 24 0 18.6274 0 12C0 5.37258 5.37258 0 12 0C18.6274 0 24 5.37258 24 12ZM7.75725 11.3379C7.39159 10.924 6.75964 10.8849 6.34573 11.2506C5.93183 11.6162 5.89272 12.2482 6.25838 12.6621L9.86875 16.7488C10.0496 16.9536 10.3064 17.0754 10.5794 17.086C10.8524 17.0966 11.1178 16.9951 11.314 16.805L17.341 10.966C17.7377 10.5817 17.7477 9.9486 17.3634 9.55193C16.9791 9.15527 16.346 9.14524 15.9494 9.52953L10.6744 14.64L7.75725 11.3379Z" fill="#F7F7F7"/>
</svg>
