<svg width="24" height="24" viewBox="0 0 24 24" fill="none" xmlns="http://www.w3.org/2000/svg">
<g clip-path="url(#clip0)">
<path d="M24 4.29464C23.117 4.68391 22.168 4.94689 21.1721 5.0652C22.1885 4.45958 22.9693 3.50058 23.337 2.35779C22.3855 2.91869 21.3318 3.32586 20.2102 3.5453C19.3121 2.59417 18.0324 2 16.6162 2C13.897 2 11.6922 4.191 11.6922 6.89351C11.6922 7.27707 11.7358 7.6506 11.8197 8.00875C7.72753 7.80469 4.09931 5.8564 1.67085 2.89567C1.24697 3.61841 1.00416 4.4591 1.00416 5.35596C1.00416 7.0538 1.8734 8.55164 3.19467 9.42918C2.38753 9.40378 1.62825 9.18362 0.964452 8.81712C0.963984 8.83751 0.963984 8.85791 0.963984 8.87866C0.963984 11.2497 2.66128 13.2274 4.91372 13.6771C4.50061 13.789 4.06561 13.8488 3.61655 13.8488C3.29926 13.8488 2.99081 13.8181 2.69011 13.761C3.31669 15.7051 5.13511 17.1201 7.28976 17.1594C5.60461 18.472 3.48155 19.2544 1.17459 19.2544C0.77714 19.2544 0.385172 19.2311 0 19.1859C2.17903 20.5744 4.76724 21.3847 7.54786 21.3847C16.6046 21.3847 21.5574 13.9278 21.5574 7.46097C21.5574 7.2488 21.5525 7.03782 21.543 6.82792C22.5052 6.13786 23.3399 5.27606 24 4.29464" fill="#00ACED"/>
</g>
<defs>
<clipPath id="clip0">
<rect width="24" height="19.3847" fill="white" transform="translate(0 2)"/>
</clipPath>
</defs>
</svg>
