<svg width="32" height="32" viewBox="0 0 32 32" fill="none" xmlns="http://www.w3.org/2000/svg">
<path d="M16.6 21L17.5291 20.1638L17.1567 19.75H16.6V21ZM21.1282 26.0315L20.1991 26.8677H20.1991L21.1282 26.0315ZM21.9999 25.697L20.7499 25.697V25.697L21.9999 25.697ZM21.9999 21V19.75H20.7499L20.7499 21L21.9999 21ZM7.25 9C7.25 8.58579 7.58579 8.25 8 8.25V5.75C6.20507 5.75 4.75 7.20507 4.75 9H7.25ZM7.25 19V9H4.75V19H7.25ZM8 19.75C7.58579 19.75 7.25 19.4142 7.25 19H4.75C4.75 20.7949 6.20508 22.25 8 22.25V19.75ZM16.6 19.75H8V22.25H16.6V19.75ZM22.0574 25.1953L17.5291 20.1638L15.6708 21.8362L20.1991 26.8677L22.0574 25.1953ZM20.7499 25.697C20.7499 25.0096 21.5975 24.6844 22.0574 25.1953L20.1991 26.8677C21.272 28.0598 23.2499 27.3009 23.2499 25.697L20.7499 25.697ZM20.7499 21L20.7499 25.697L23.2499 25.697L23.2499 21L20.7499 21ZM24 19.75H21.9999V22.25H24V19.75ZM24.75 19C24.75 19.4142 24.4142 19.75 24 19.75V22.25C25.7949 22.25 27.25 20.7949 27.25 19H24.75ZM24.75 9V19H27.25V9H24.75ZM24 8.25C24.4142 8.25 24.75 8.58579 24.75 9H27.25C27.25 7.20507 25.7949 5.75 24 5.75V8.25ZM8 8.25H24V5.75H8V8.25Z" fill="black"/>
<circle cx="11" cy="14" r="1.5" fill="black"/>
<circle cx="16" cy="14" r="1.5" fill="black"/>
<circle cx="21" cy="14" r="1.5" fill="black"/>
</svg>
