<svg width="40" height="40" viewBox="0 0 40 40" fill="none" xmlns="http://www.w3.org/2000/svg">
<circle cx="20" cy="20" r="20" fill="#1DA1F2"/>
<path d="M15.9552 29.0777C24.3208 29.0777 28.8964 22.1469 28.8964 16.1365C28.8964 15.9396 28.8964 15.7437 28.8831 15.5486C29.7733 14.9047 30.5417 14.1075 31.1523 13.1943C30.3222 13.5621 29.4416 13.8033 28.5399 13.9099C29.4894 13.3414 30.2001 12.4474 30.5396 11.3941C29.6467 11.9239 28.67 12.2973 27.6514 12.4982C26.9657 11.769 26.0587 11.2861 25.0709 11.1243C24.083 10.9625 23.0694 11.1308 22.1869 11.6031C21.3043 12.0755 20.602 12.8255 20.1887 13.7372C19.7754 14.6488 19.674 15.6713 19.9003 16.6464C18.092 16.5557 16.323 16.0858 14.7081 15.2671C13.0932 14.4484 11.6685 13.2993 10.5265 11.8943C9.94487 12.8956 9.76673 14.0809 10.0283 15.2089C10.29 16.3369 10.9717 17.3228 11.9347 17.9659C11.2108 17.9444 10.5028 17.7491 9.8703 17.3966C9.8703 17.4152 9.8703 17.4347 9.8703 17.4542C9.87059 18.5043 10.2341 19.522 10.8992 20.3346C11.5643 21.1473 12.49 21.7048 13.5193 21.9128C12.8497 22.0954 12.1471 22.1221 11.4656 21.9908C11.7562 22.8946 12.322 23.6849 13.0839 24.2512C13.8458 24.8175 14.7657 25.1316 15.7149 25.1494C14.1043 26.4152 12.1147 27.1023 10.0663 27.1003C9.70439 27.0996 9.34287 27.0777 8.98355 27.0346C11.0635 28.3695 13.4837 29.0775 15.9552 29.0742" fill="white"/>
</svg>
