<svg width="56" height="56" viewBox="0 0 56 56" fill="none" xmlns="http://www.w3.org/2000/svg">
<path d="M51.623 45.6102C51.6244 45.5732 51.625 45.5365 51.625 45.5C51.624 44.5721 51.2549 43.6824 50.5987 43.0263C49.9426 42.3701 49.0529 42.001 48.125 42V25.8125L51.275 23.45C51.3844 23.3679 51.4731 23.2614 51.5338 23.1389C51.5946 23.0164 51.6258 22.8813 51.625 22.7446C51.6241 22.6078 51.5912 22.4732 51.5289 22.3514C51.4666 22.2297 51.3767 22.1242 51.2663 22.0435L43.75 16.5508V7C43.9821 7 44.2046 6.90781 44.3687 6.74372C44.5328 6.57962 44.625 6.35706 44.625 6.125V2.625C44.625 2.39294 44.5328 2.17038 44.3687 2.00628C44.2046 1.84219 43.9821 1.75 43.75 1.75H35C34.7679 1.75 34.5454 1.84219 34.3813 2.00628C34.2172 2.17038 34.125 2.39294 34.125 2.625V6.125C34.125 6.35706 34.2172 6.57962 34.3813 6.74372C34.5454 6.90781 34.7679 7 35 7V10.1567L28.5163 5.41855C28.3664 5.30904 28.1856 5.25002 28 5.25002C27.8144 5.25002 27.6336 5.30904 27.4838 5.41855L4.73375 22.0435C4.62334 22.1242 4.53337 22.2297 4.47108 22.3514C4.40878 22.4732 4.37589 22.6078 4.37504 22.7446C4.37419 22.8813 4.4054 23.0164 4.46618 23.1389C4.52695 23.2614 4.6156 23.3679 4.725 23.45L7.875 25.8125V42C6.94706 42.001 6.05743 42.3701 5.40128 43.0263C4.74513 43.6824 4.37604 44.5721 4.375 45.5C4.375 45.5365 4.37566 45.5732 4.37697 45.6102C3.55151 45.8225 2.83185 46.3286 2.35303 47.0337C1.87421 47.7388 1.66914 48.5944 1.77628 49.44C1.88343 50.2855 2.29543 51.0629 2.93498 51.6263C3.57454 52.1897 4.39769 52.5004 5.25 52.5H50.75C51.6023 52.5004 52.4255 52.1897 53.065 51.6263C53.7046 51.0629 54.1166 50.2855 54.2237 49.44C54.3309 48.5944 54.1258 47.7388 53.647 47.0337C53.1682 46.3286 52.4485 45.8225 51.623 45.6102ZM35.875 3.5H42.875V5.25H35.875V3.5ZM36.75 11.375V7H42V15.272L36.6672 11.375H36.75ZM28 7.20869L49.2795 22.7592L47.242 24.2873L28.5147 10.6673C28.3652 10.5585 28.185 10.4999 28 10.4999C27.8151 10.4999 27.6349 10.5585 27.4853 10.6673L8.75799 24.2873L6.72055 22.7592L28 7.20869ZM3.5 49C3.50049 48.5405 3.68143 48.0997 4.00385 47.7723C4.32627 47.445 4.76436 47.2574 5.22375 47.25H5.22583C5.27056 47.2562 5.3153 47.2616 5.36091 47.2645C5.50591 47.2737 5.65091 47.2466 5.78281 47.1857C5.91472 47.1248 6.02939 47.032 6.11646 46.9157C6.20354 46.7994 6.26028 46.6632 6.28158 46.5195C6.30287 46.3758 6.28804 46.229 6.23842 46.0925C6.16601 45.9032 6.12761 45.7026 6.125 45.5C6.12555 45.036 6.3101 44.5912 6.63817 44.2632C6.96624 43.9351 7.41104 43.7505 7.875 43.75V50.75H5.25C4.78604 50.7495 4.34124 50.5649 4.01317 50.2368C3.6851 49.9088 3.50055 49.464 3.5 49ZM41.125 50.75H30.625V31.5H41.125V50.75ZM42.875 50.75V30.625C42.875 30.3929 42.7828 30.1704 42.6187 30.0063C42.4546 29.8422 42.2321 29.75 42 29.75H29.75C29.5179 29.75 29.2954 29.8422 29.1313 30.0063C28.9672 30.1704 28.875 30.3929 28.875 30.625V50.75H9.625V25.8206L28 12.4569L46.375 25.8206V50.75H42.875ZM50.75 50.75H48.125V43.75C48.589 43.7505 49.0338 43.9351 49.3618 44.2632C49.6899 44.5912 49.8745 45.036 49.875 45.5C49.8724 45.7028 49.834 45.9035 49.7616 46.0929C49.712 46.2295 49.6971 46.3762 49.7184 46.52C49.7397 46.6637 49.7965 46.7998 49.8835 46.9161C49.9706 47.0324 50.0853 47.1252 50.2172 47.1861C50.3491 47.247 50.4941 47.2741 50.6391 47.265C50.6847 47.262 50.7294 47.2567 50.7742 47.2504H50.7763C51.2404 47.2539 51.6841 47.4416 52.0098 47.7723C52.3356 48.1029 52.5166 48.5494 52.5131 49.0136C52.5097 49.4777 52.3219 49.9214 51.9913 50.2472C51.6606 50.5729 51.2141 50.7539 50.75 50.7504V50.75Z" fill="#A7A5A5"/>
<path d="M24.5 29.75H14C13.7679 29.75 13.5454 29.8422 13.3813 30.0063C13.2172 30.1704 13.125 30.3929 13.125 30.625V42.875C13.125 43.1071 13.2172 43.3296 13.3813 43.4937C13.5454 43.6578 13.7679 43.75 14 43.75H24.5C24.7321 43.75 24.9546 43.6578 25.1187 43.4937C25.2828 43.3296 25.375 43.1071 25.375 42.875V30.625C25.375 30.3929 25.2828 30.1704 25.1187 30.0063C24.9546 29.8422 24.7321 29.75 24.5 29.75ZM23.625 35.875H20.125V31.5H23.625V35.875ZM18.375 31.5V35.875H14.875V31.5H18.375ZM14.875 37.625H18.375V42H14.875V37.625ZM20.125 42V37.625H23.625V42H20.125Z" fill="#A7A5A5"/>
<path d="M34.0584 40.5849C34.2434 40.1384 34.0314 39.6266 33.5849 39.4416C33.1384 39.2567 32.6266 39.4687 32.4417 39.9152C32.2567 40.3616 32.4687 40.8735 32.9152 41.0584C33.3617 41.2434 33.8735 41.0313 34.0584 40.5849Z" fill="#A7A5A5"/>
</svg>
