<svg width="48" height="48" viewBox="0 0 48 48" fill="none" xmlns="http://www.w3.org/2000/svg">
<path d="M44.8 0H33.6C33.2092 0.000114728 32.8757 0.282558 32.8112 0.668L30.4112 15.068C30.3724 15.3 30.4376 15.5373 30.5896 15.7168C30.7415 15.8964 30.9648 15.9999 31.2 16H38.4V43.2H35.2C33.8745 43.2 32.8 44.2745 32.8 45.6V47.2C32.8 47.6418 33.1582 48 33.6 48H44.8C45.2418 48 45.6 47.6418 45.6 47.2V45.6C45.6 44.2745 44.5255 43.2 43.2 43.2H40V16H43.2V20.1472C42.098 20.5368 41.4369 21.6637 41.6346 22.8158C41.8322 23.9678 42.8311 24.8099 44 24.8099C45.1689 24.8099 46.1678 23.9678 46.3654 22.8158C46.5631 21.6637 45.902 20.5368 44.8 20.1472V16H47.2C47.4352 15.9999 47.6585 15.8964 47.8104 15.7168C47.9624 15.5373 48.0276 15.3 47.9888 15.068L45.5888 0.668C45.5243 0.282558 45.1908 0.000114728 44.8 0ZM44 45.6V46.4H34.4V45.6C34.4 45.1582 34.7582 44.8 35.2 44.8H43.2C43.6418 44.8 44 45.1582 44 45.6ZM44 23.2C43.5582 23.2 43.2 22.8418 43.2 22.4C43.2 21.9582 43.5582 21.6 44 21.6C44.4418 21.6 44.8 21.9582 44.8 22.4C44.8 22.8418 44.4418 23.2 44 23.2ZM32.1448 14.4L34.2776 1.6H44.1224L46.2552 14.4H32.1448Z" fill="black"/>
<path d="M33.8968 31.1432C34.1898 31.0265 34.3869 30.7485 34.4 30.4333C34.4132 30.1182 34.2399 29.8247 33.9576 29.684C32.6909 29.14 31.2607 29.1176 29.9776 29.6216C29.8104 29.6848 29.6496 29.7696 29.4872 29.8496C29.2537 26.0635 29.8153 22.2704 31.136 18.7144C31.2646 18.4136 31.1971 18.0649 30.9657 17.8338C30.7342 17.6027 30.3854 17.5358 30.0848 17.6648C28.8161 18.3545 27.7394 19.3496 26.952 20.56C26.554 19.7322 25.7185 19.2042 24.8 19.2H22.2528C22.3475 18.9438 22.3973 18.6732 22.4 18.4V2.4C22.4 1.07452 21.3255 0 20 0H4C2.67452 0 1.6 1.07452 1.6 2.4V18.4C1.60088 18.7061 1.66063 19.0092 1.776 19.2928C0.73183 19.5739 0.00462577 20.5187 0 21.6V45.6C0 46.9255 1.07452 48 2.4 48H28.8C29.1802 48.0001 29.508 47.7325 29.584 47.36L31.088 39.84C31.6437 39.5754 31.9983 39.0155 32 38.4V36.8C31.9975 36.1989 31.6573 35.6503 31.12 35.3808C30.8424 32.4336 33.768 31.1952 33.8968 31.1432ZM30.5128 31.1304C30.7891 31.0218 31.0768 30.9448 31.3704 30.9008C30.1352 31.9815 29.4506 33.5597 29.5056 35.2H26.8288C27.852 33.0776 29.112 31.68 30.5128 31.1304ZM10.4 20.8H16.98C17.4032 21.36 17.892 22.0536 18.4 22.8664V27.8944L14.9128 24.9856C14.6159 24.7376 14.1841 24.7376 13.8872 24.9856L10.4 27.892V20.8ZM19.4616 20.6872C21.5931 21.9075 23.2548 23.8062 24.1816 26.0808C23.7692 27.2917 23.4265 28.5251 23.1552 29.7752C22.2029 26.3132 20.6255 23.0545 18.5008 20.16C18.8104 20.3152 19.1328 20.4888 19.4616 20.6872ZM20 25.7872C20.5413 26.9259 20.9996 28.1023 21.3712 29.3072C20.9352 28.9882 20.4615 28.7243 19.9608 28.5216C19.982 28.459 19.9952 28.3939 20 28.328V25.7872ZM22.1136 32.5072C22.2208 33.1688 22.2968 33.8096 22.3392 34.4776C22.36 34.7048 22.3752 34.9448 22.3856 35.2032H20.6256C19.882 32.8271 18.2195 30.8469 16.008 29.7032C16.4019 29.6367 16.8005 29.6021 17.2 29.6C19.251 29.5768 21.1448 30.6961 22.1136 32.504V32.5072ZM19.2 36.8H30.4V38.4H19.2V36.8ZM28.772 20.8424C27.9302 24.1166 27.6596 27.5114 27.972 30.8776C26.7063 32.0926 25.7186 33.5671 25.0768 35.2H23.9856C23.9784 34.996 23.9656 34.8104 23.9528 34.628C23.9707 34.5846 23.9847 34.5396 23.9944 34.4936C24.9024 26.7736 27.1288 22.7944 28.772 20.8424ZM25.6 21.6V22.7512C25.3904 23.1523 25.1829 23.5845 24.9776 24.048C24.2806 22.8237 23.3821 21.7256 22.32 20.8H24.8C25.2418 20.8 25.6 21.1582 25.6 21.6ZM15.2 1.6V7.3872L12.412 5.7144C12.1585 5.56207 11.8415 5.56207 11.588 5.7144L8.8 7.3872V1.6H15.2ZM3.2 2.4C3.2 1.95817 3.55817 1.6 4 1.6H7.2V8.8C7.20005 9.08827 7.3552 9.35423 7.60611 9.49616C7.85702 9.6381 8.16489 9.63406 8.412 9.4856L12 7.3328L15.588 9.4856C15.8351 9.63406 16.143 9.6381 16.3939 9.49616C16.6448 9.35423 16.7999 9.08827 16.8 8.8V1.6H20C20.4418 1.6 20.8 1.95817 20.8 2.4V18.4C20.7976 18.8164 20.4739 19.1603 20.0584 19.188C18.8435 18.4746 17.5298 17.9446 16.16 17.6152C15.8147 17.5475 15.4656 17.7133 15.3001 18.0239C15.1345 18.3344 15.1913 18.7166 15.44 18.9656C15.44 18.9656 15.52 19.0456 15.6616 19.2H4C3.55817 19.2 3.2 18.8418 3.2 18.4V2.4ZM1.6 45.6V21.6C1.6 21.1582 1.95817 20.8 2.4 20.8H8.8V29.6C8.79986 29.9106 8.97955 30.1933 9.26089 30.3249C9.54224 30.4566 9.87437 30.4135 10.1128 30.2144L14.4 26.64L16.128 28.08C15.1316 28.2001 14.1591 28.4698 13.2432 28.88C12.9481 29.0276 12.7739 29.3412 12.8045 29.6697C12.8351 29.9983 13.0643 30.2743 13.3816 30.3648C15.914 30.9847 17.9874 32.7962 18.9416 35.2224C18.1685 35.3489 17.6007 36.0166 17.6 36.8V38.4C17.6017 39.0155 17.9563 39.5754 18.512 39.84L19.824 46.4H2.4C1.95817 46.4 1.6 46.0418 1.6 45.6ZM28.1448 46.4H21.4552L20.1752 40H29.424L28.1448 46.4Z" fill="black"/>
<path d="M4.8 35.2H11.2C11.6418 35.2 12 34.8418 12 34.4C12 33.9581 11.6418 33.6 11.2 33.6H4.8C4.35817 33.6 4 33.9581 4 34.4C4 34.8418 4.35817 35.2 4.8 35.2Z" fill="black"/>
<path d="M13.6 36.8H4.8C4.35817 36.8 4 37.1582 4 37.6C4 38.0418 4.35817 38.4 4.8 38.4H13.6C14.0418 38.4 14.4 38.0418 14.4 37.6C14.4 37.1582 14.0418 36.8 13.6 36.8Z" fill="black"/>
<path d="M11.2 40H4.8C4.35817 40 4 40.3582 4 40.8C4 41.2418 4.35817 41.6 4.8 41.6H11.2C11.6418 41.6 12 41.2418 12 40.8C12 40.3582 11.6418 40 11.2 40Z" fill="black"/>
<path d="M6.4 13.6H11.2C11.6418 13.6 12 13.2418 12 12.8C12 12.3582 11.6418 12 11.2 12H6.4C5.95817 12 5.6 12.3582 5.6 12.8C5.6 13.2418 5.95817 13.6 6.4 13.6Z" fill="black"/>
<path d="M6.4 16.8H11.2C11.6418 16.8 12 16.4418 12 16C12 15.5582 11.6418 15.2 11.2 15.2H6.4C5.95817 15.2 5.6 15.5582 5.6 16C5.6 16.4418 5.95817 16.8 6.4 16.8Z" fill="black"/>
</svg>
