<?xml version="1.0" encoding="UTF-8"?>
<svg width="246px" height="246px" viewBox="0 0 246 246" version="1.1" xmlns="http://www.w3.org/2000/svg" xmlns:xlink="http://www.w3.org/1999/xlink">
    <!-- Generator: Sketch 49 (51002) - http://www.bohemiancoding.com/sketch -->
    <title>insurance-img01</title>
    <desc>Created with Sketch.</desc>
    <defs>
        <path d="M123,0 C190.885726,0 246,55.1142738 246,123 C246,190.885555 190.885726,246 123,246 C55.114445,246 0,190.885555 0,123 C0,55.1142738 55.114445,0 123,0 Z" id="path-1"></path>
    </defs>
    <g id="smp" stroke="none" stroke-width="1" fill="none" fill-rule="evenodd">
        <g id="荷物に対する保険" transform="translate(-116.000000, -801.000000)">
            <g id="Page-1" transform="translate(116.000000, 801.000000)">
                <path d="M123,0 C190.885726,0 246,55.1142738 246,123 C246,190.885555 190.885726,246 123,246 C55.114445,246 0,190.885555 0,123 C0,55.1142738 55.114445,0 123,0 Z" id="Fill-1" fill="#E85258"></path>
                <g id="Group-30">
                    <mask id="mask-2" fill="white">
                        <use xlink:href="#path-1"></use>
                    </mask>
                    <g id="Clip-3"></g>
                    <path d="M90.9555035,145.09548 C90.9555035,145.09548 59.4092854,190.533335 57.154761,196.799886 C53.3959838,207.242557 38.8318705,226.595965 38.8318705,226.595965 L66.6117773,254.375986 C66.6117773,254.375986 83.566942,239.682823 88.6838561,239.682823 C93.8013411,239.682823 105.576807,238.255167 112.357503,227.072669 C119.142766,215.885205 132.838288,195.541119 134.434719,192.924273 C136.038571,190.307369 146.622278,183.092492 146.622278,183.092492 L90.9555035,145.09548 Z" id="Fill-2" fill="#FCCDB5" mask="url(#mask-2)"></path>
                    <path d="M158.403452,177.590311 C158.403452,180.617081 155.928042,183.092492 152.904125,183.092492 L96.4554014,183.092492 C93.4309142,183.092492 90.9555035,180.617081 90.9555035,177.590311 L90.9555035,56.6781717 C90.9555035,53.6542552 93.4309142,51.1737077 96.4554014,51.1737077 L152.904125,51.1737077 C155.928042,51.1737077 158.403452,53.6542552 158.403452,56.6781717 L158.403452,177.590311 Z" id="Fill-4" fill="#5A5A5A" mask="url(#mask-2)"></path>
                    <polygon id="Fill-5" fill="#FFFFFF" mask="url(#mask-2)" points="95.7750487 168.870724 153.589615 168.870724 153.589615 59.8858747 95.7750487 59.8858747"></polygon>
                    <path d="M134.434719,169.350167 C134.434719,172.898046 131.559202,175.77071 128.011323,175.77071 C124.46116,175.77071 121.58336,172.898046 121.58336,169.350167 C121.58336,165.797151 124.46116,162.922204 128.011323,162.922204 C131.559202,162.922204 134.434719,165.797151 134.434719,169.350167 Z" id="Fill-6" fill="#FCCDB5" mask="url(#mask-2)"></path>
                    <path d="M74.0454292,232.326281 C69.7601206,232.326281 65.7031183,231.338115 62.5051183,228.97446 L117.658204,183.092492 L127.197411,183.092492 C127.197411,183.092492 109.683466,204.106771 100.581466,219.817952 C96.9097309,226.146601 84.7638376,232.326281 74.0454292,232.326281 Z" id="Fill-7" fill="#FBC1A6" mask="url(#mask-2)"></path>
                    <polygon id="Fill-8" fill="#464340" mask="url(#mask-2)" points="127.197411 183.092492 117.658204 183.092492 118.783183 182.156436"></polygon>
                    <path d="M124.150664,164.220696 C124.150664,164.220696 98.1060557,182.456659 90.9555035,182.456659 C83.805522,182.456659 62.5051183,228.97446 62.5051183,228.97446 C62.5051183,228.97446 78.8073271,231.832169 87.3756613,222.310657 C95.9388585,212.796564 101.892515,200.660659 109.03051,193.875168 C116.166223,187.094701 132.952441,173.451689 132.952441,173.451689 L124.150664,164.220696 Z" id="Fill-9" fill="#FCCDB5" mask="url(#mask-2)"></path>
                    <path d="M132.130538,167.150436 C134.625926,170.668636 129.682524,173.617782 126.114668,176.157689 C124.32703,176.170246 121.131884,172.024204 121.645573,169.856436 C126.576418,166.35593 130.099754,164.27549 132.130538,167.150436 Z" id="Fill-10" fill="#FEE3CF" mask="url(#mask-2)"></path>
                    <path d="M110.608677,126.096404 C110.239963,126.096404 109.943165,125.797323 109.943165,125.429749 L109.943165,122.577063 L111.610942,122.577063 L111.610942,124.405225 C111.610942,124.577026 111.299875,125.457146 111.239944,125.63865 C111.150334,125.910334 110.895773,126.096404 110.608677,126.096404 Z" id="Fill-11" fill="#704625" mask="url(#mask-2)"></path>
                    <path d="M139.508255,126.096404 C139.877541,126.096404 140.17491,125.797323 140.17491,125.429749 L140.17491,122.577063 L138.507703,122.577063 L138.507703,124.405225 C138.507703,124.577026 138.815916,125.45258 138.876988,125.63865 C138.96774,125.910334 139.221731,126.096404 139.508255,126.096404 Z" id="Fill-12" fill="#704625" mask="url(#mask-2)"></path>
                    <path d="M125.059323,103.947271 L125.059323,114.641137 C125.059323,116.051499 123.897244,117.166775 122.527977,117.166775 L110.747374,117.166775 C109.348427,117.166775 108.220023,116.0378 108.220023,114.641137 L108.220023,103.947271 C108.220023,102.550608 109.348427,101.421633 110.747374,101.421633 L122.527977,101.421633 C123.882404,101.421633 125.059323,102.519216 125.059323,103.947271 Z" id="Fill-13" fill="#AAD04A" mask="url(#mask-2)"></path>
                    <path d="M112.955666,107.942631 C113.423694,108.799921 113.589787,108.904371 114.306668,109.294204 C113.445383,109.765657 113.352348,109.920334 112.955666,110.645777 C112.486497,109.783921 112.320404,109.688603 111.604093,109.294204 C112.32497,108.899805 112.485926,108.804487 112.955666,107.942631 Z" id="Fill-14" fill="#95B23C" mask="url(#mask-2)"></path>
                    <path d="M120.320826,107.942631 C120.787712,108.799921 120.954376,108.904371 121.671828,109.294204 C120.809401,109.765657 120.716937,109.920334 120.320826,110.645777 C119.851086,109.783921 119.685564,109.688603 118.969253,109.294204 C119.689559,108.899805 119.850515,108.804487 120.320826,107.942631 Z" id="Fill-15" fill="#95B23C" mask="url(#mask-2)"></path>
                    <path d="M141.89691,103.947271 L141.89691,114.641137 C141.89691,116.0378 140.76394,117.166775 139.366135,117.166775 L127.585531,117.166775 C126.17574,117.166775 125.059323,116.028668 125.059323,114.641137 L125.059323,103.947271 C125.059323,102.546042 126.19058,101.421633 127.585531,101.421633 L139.366135,101.421633 C140.76394,101.421633 141.89691,102.550608 141.89691,103.947271 Z" id="Fill-16" fill="#AAD04A" mask="url(#mask-2)"></path>
                    <polygon id="Fill-17" fill="#798E39" mask="url(#mask-2)" points="110.814153 117.67019 139.304492 117.67019 139.304492 117.166775 110.814153 117.166775"></polygon>
                    <path d="M126.111814,101.893086 L126.111814,116.699889 C125.475411,116.237568 125.059323,115.489295 125.059323,114.641137 C125.059323,115.484729 124.642664,116.233573 124.005689,116.686761 L124.005689,101.906784 C124.642664,102.355406 125.059323,103.104251 125.059323,103.947271 C125.059323,103.104251 125.475411,102.351411 126.111814,101.893086 Z" id="Fill-18" fill="#95B23C" mask="url(#mask-2)"></path>
                    <path d="M144.33522,112.999615 C145.20735,112.999615 145.913958,113.706794 145.913958,114.577782 C145.913958,116.101155 145.275842,116.699889 144.33522,116.699889 L144.33522,120.396167 L141.895197,120.396167 C141.895197,112.146891 141.895197,119.380204 141.895197,114.341485 C141.895197,112.767884 143.608636,112.999615 144.33522,112.999615 Z" id="Fill-19" fill="#AAD04A" mask="url(#mask-2)"></path>
                    <path d="M144.332937,120.123912 L105.782854,120.123912 C105.782854,118.772339 106.874729,117.67019 108.233722,117.67019 L141.881499,117.67019 C143.234784,117.67019 144.332937,118.767773 144.332937,120.123912 Z" id="Fill-20" fill="#C0D963" mask="url(#mask-2)"></path>
                    <path d="M144.332937,120.123912 C144.332937,121.461787 143.244487,122.577063 141.881499,122.577063 L108.233722,122.577063 C106.880436,122.577063 105.782854,121.475485 105.782854,120.123912 L144.332937,120.123912 Z" id="Fill-21" fill="#8BA23C" mask="url(#mask-2)"></path>
                    <path d="M129.794394,107.942631 C130.262422,108.799921 130.427944,108.904371 131.144826,109.294204 C130.28297,109.765657 130.191077,109.920334 129.794394,110.645777 C129.324654,109.783921 129.159132,109.688603 128.442821,109.294204 C129.163698,108.899805 129.324654,108.804487 129.794394,107.942631 Z" id="Fill-22" fill="#95B23C" mask="url(#mask-2)"></path>
                    <path d="M137.158984,107.942631 C137.626441,108.799921 137.792534,108.904371 138.509986,109.294204 C137.64813,109.765657 137.555095,109.920334 137.158984,110.645777 C136.689244,109.783921 136.524292,109.688603 135.807411,109.294204 C136.527717,108.899805 136.689244,108.804487 137.158984,107.942631 Z" id="Fill-23" fill="#95B23C" mask="url(#mask-2)"></path>
                    <path d="M105.782283,112.723364 C104.910724,112.723364 104.203545,113.429972 104.203545,114.300961 C104.203545,115.824905 104.84109,116.423067 105.782283,116.423067 L105.782283,120.123912 L108.221735,120.123912 C108.221735,111.811852 108.221735,119.212399 108.221735,114.065234 C108.221735,112.500766 106.524278,112.723364 105.782283,112.723364 Z" id="Fill-24" fill="#AAD04A" mask="url(#mask-2)"></path>
                    <polygon id="Fill-25" fill="#D5E6DC" mask="url(#mask-2)" points="193.947313 115.681643 189.225369 106.044835 223.256701 91.1090394"></polygon>
                    <polygon id="Fill-26" fill="#6F9AAC" mask="url(#mask-2)" points="222.794951 91.39271 193.947313 115.681643 197.789708 109.124687"></polygon>
                    <polygon id="Fill-27" fill="#FFFFFF" mask="url(#mask-2)" points="223.256701 91.1090394 197.789708 109.124687 207.459619 113.402005"></polygon>
                    <polygon id="Fill-28" fill="#FFFFFF" mask="url(#mask-2)" points="189.225369 106.044835 180.159898 103.168747 223.25613 91.1090394"></polygon>
                    <path d="M167.2058,139.56419 C169.320487,139.863842 172.426594,141.093842 174.606919,140.484835 C176.310084,140.008246 177.62684,138.441494 178.877958,137.200079 C179.93045,136.155578 180.143346,134.285749 180.66845,132.917053 C179.19245,125.214571 169.29994,128.921694 174.636028,135.185276 C181.215814,142.907735 192.256705,129.454789 192.785805,121.632445" id="Stroke-29" stroke="#FFFFFF" stroke-width="1.5" stroke-dasharray="3.75,3.75" mask="url(#mask-2)"></path>
                </g>
            </g>
        </g>
    </g>
</svg>