<?xml version="1.0" encoding="UTF-8"?>
<svg width="246px" height="246px" viewBox="0 0 246 246" version="1.1" xmlns="http://www.w3.org/2000/svg" xmlns:xlink="http://www.w3.org/1999/xlink">
    <!-- Generator: Sketch 49 (51002) - http://www.bohemiancoding.com/sketch -->
    <title>insurance-img02</title>
    <desc>Created with Sketch.</desc>
    <defs>
        <path d="M123,0 C190.885726,0 246,55.1142738 246,123 C246,190.885555 190.885726,246 123,246 C55.114445,246 0,190.885555 0,123 C0,55.1142738 55.114445,0 123,0 Z" id="path-1"></path>
    </defs>
    <g id="smp" stroke="none" stroke-width="1" fill="none" fill-rule="evenodd">
        <g id="荷物に対する保険" transform="translate(-116.000000, -1097.000000)">
            <g id="Page-1" transform="translate(116.000000, 1097.000000)">
                <path d="M123,0 C190.885726,0 246,55.1142738 246,123 C246,190.885555 190.885726,246 123,246 C55.114445,246 0,190.885555 0,123 C0,55.1142738 55.114445,0 123,0 Z" id="Fill-1" fill="#E8BE5D"></path>
                <g id="Group-46">
                    <mask id="mask-2" fill="white">
                        <use xlink:href="#path-1"></use>
                    </mask>
                    <g id="Clip-3"></g>
                    <polygon id="Fill-2" fill="#F4B698" mask="url(#mask-2)" points="196.15161 113.209657 172.486524 109.11213 171.273647 125.624951 190.21736 129.080937 171.273647 135.891884 162.877114 141.588125 186.579299 153.900111 202.066455 144.383165 204.307281 127.680278 201.04193 114.153132"></polygon>
                    <polygon id="Fill-4" fill="#F4B698" mask="url(#mask-2)" points="48.7066872 113.209657 72.3690905 109.11213 73.5848213 125.624951 54.6412232 129.080937 73.5848213 135.891884 81.981355 141.588125 58.2791694 153.900111 42.7945824 144.383165 40.5540418 127.680278 43.8167666 114.153132"></polygon>
                    <path d="M170.562473,86.720993 C173.024186,86.720993 175.037847,88.7346543 175.037847,91.1935128 L175.037847,137.107615 C175.037847,139.572181 173.024186,141.588125 170.562473,141.588125 L72.206993,141.588125 C69.7452807,141.588125 67.7259118,139.572181 67.7259118,137.107615 L67.7259118,91.1935128 C67.7259118,88.7346543 69.7452807,86.720993 72.206993,86.720993 L170.562473,86.720993 Z" id="Fill-5" fill="#464647" mask="url(#mask-2)"></path>
                    <polygon id="Fill-6" fill="#FFFFFF" mask="url(#mask-2)" points="74.8199582 137.664682 163.468427 137.664682 163.468427 90.6363884 74.8199582 90.6363884"></polygon>
                    <path d="M91.1221671,83.1725429 C91.2962506,77.2856659 66.4936288,71.9729791 61.0799165,74.5887981 C55.6662613,77.1989095 29.1890701,106.759434 23.5709666,112.842654 C19.2131708,122.922376 11.4358037,176.487021 -0.506040835,191.224076 L26.7385448,206.341889 C26.7385448,206.341889 31.0011369,195.357789 33.4628492,193.279746 C35.885407,191.224076 41.5202339,192.907264 45.3291814,191.414484 C49.1324213,189.918963 52.6808144,187.305884 59.5873643,180.217545 C66.4936288,173.123499 73.7668956,161.923935 78.0630487,159.498752 C82.3534942,157.072998 89.3048492,152.516575 94.3487053,151.205527 C99.3868538,149.900756 106.783406,149.069151 106.800529,143.638316 C106.825643,135.891884 95.1746032,137.653267 89.7277865,138.880413 C85.1542413,139.904937 61.8247657,150.354515 58.8396613,150.729508 C55.8567258,151.102218 45.5895647,141.022497 45.2170831,137.664682 C46.1300798,134.51691 48.8859077,132.69103 49.4461142,126.593541 C49.9277833,121.387587 48.3846613,116.869977 47.6424376,115.270691 C48.017716,113.027582 65.8663573,88.4994988 70.3474385,87.5668677 C74.8228121,86.6342367 90.9400928,89.7038144 91.1221671,83.1725429 Z" id="Fill-7" fill="#FCCDB5" mask="url(#mask-2)"></path>
                    <path d="M92.1529698,147.36884 C91.083355,144.96877 91.8727239,142.518473 96.1637401,141.210278 C100.454186,139.904937 103.067151,139.843865 103.910172,142.98593 C104.806274,146.330046 103.254933,147.649086 98.7789884,148.584571 C93.9874107,149.581698 92.897819,149.04632 92.1529698,147.36884 Z" id="Fill-8" fill="#FEE3CF" mask="url(#mask-2)"></path>
                    <path d="M153.730594,83.1725429 C153.562218,77.2856659 178.36484,71.9729791 183.781406,74.5887981 C189.186557,77.1989095 215.663805,106.759434 221.290413,112.842654 C225.642501,122.922376 233.4169,176.487021 245.364738,191.224076 L218.111819,206.341889 C218.111819,206.341889 213.860186,195.357789 211.395619,193.279746 C208.97329,191.224076 203.338121,192.907264 199.532255,191.414484 C195.717828,189.918963 192.180223,187.305884 185.271104,180.217545 C178.36484,173.123499 171.085865,161.923935 166.792566,159.498752 C162.504974,157.072998 155.547912,152.516575 150.512617,151.205527 C145.474469,149.900756 138.069355,149.069151 138.055086,143.638316 C138.032826,135.891884 149.678158,137.653267 155.130682,138.880413 C159.704227,139.904937 183.030849,150.354515 186.015954,150.729508 C189.004483,151.102218 199.269132,141.022497 199.641271,137.664682 C198.728046,134.51691 195.966682,132.69103 195.412469,126.593541 C194.930742,121.387587 196.476376,116.869977 197.216088,115.270691 C196.846232,113.027582 178.992111,88.4994988 174.505893,87.5668677 C170.03052,86.6342367 153.918376,89.7038144 153.730594,83.1725429 Z" id="Fill-9" fill="#FCCDB5" mask="url(#mask-2)"></path>
                    <path d="M152.702645,147.36884 C153.775114,144.96877 152.982891,142.518473 148.691875,141.210278 C144.398575,139.904937 141.788464,139.843865 140.948297,142.98593 C140.049341,146.330046 141.601253,147.649086 146.07948,148.584571 C150.876766,149.581698 151.957796,149.04632 152.702645,147.36884 Z" id="Fill-10" fill="#FEE3CF" mask="url(#mask-2)"></path>
                    <path d="M86.336297,126.37722 C85.9978329,126.37722 85.725007,126.102111 85.725007,125.764789 L85.725007,123.144404 L87.2563712,123.144404 L87.2563712,124.823026 C87.2563712,124.981698 86.9709884,125.789903 86.9161949,125.955995 C86.8340046,126.205991 86.59942,126.37722 86.336297,126.37722 Z" id="Fill-11" fill="#704625" mask="url(#mask-2)"></path>
                    <path d="M112.880896,126.37722 C113.220501,126.37722 113.493327,126.102111 113.493327,125.764789 L113.493327,123.144404 L111.961963,123.144404 L111.961963,124.823026 C111.961963,124.981698 112.245063,125.785336 112.301568,125.955995 C112.3849,126.205991 112.617773,126.37722 112.880896,126.37722 Z" id="Fill-12" fill="#704625" mask="url(#mask-2)"></path>
                    <path d="M99.6094524,106.032278 L99.6094524,115.854585 C99.6094524,117.150223 98.5415499,118.175318 97.2841531,118.175318 L86.4635777,118.175318 C85.1782135,118.175318 84.141703,117.137666 84.141703,115.854585 L84.141703,106.032278 C84.141703,104.749768 85.1782135,103.712116 86.4635777,103.712116 L97.2841531,103.712116 C98.5284223,103.712116 99.6094524,104.720659 99.6094524,106.032278 Z" id="Fill-13" fill="#AAD04A" mask="url(#mask-2)"></path>
                    <path d="M88.4920789,109.702302 C88.9218654,110.489387 89.0742599,110.585276 89.7329234,110.943717 C88.9412715,111.376928 88.8562274,111.518478 88.4920789,112.185132 C88.0611508,111.39348 87.9081856,111.306153 87.2506636,110.943717 C87.9127517,110.581281 88.06058,110.493954 88.4920789,109.702302 Z" id="Fill-14" fill="#95B23C" mask="url(#mask-2)"></path>
                    <path d="M95.2567935,109.702302 C95.6860093,110.489387 95.8389745,110.585276 96.4976381,110.943717 C95.7059861,111.376928 95.620942,111.518478 95.2567935,112.185132 C94.8258654,111.39348 94.673471,111.306153 94.0153782,110.943717 C94.6768956,110.581281 94.8247239,110.493954 95.2567935,109.702302 Z" id="Fill-15" fill="#95B23C" mask="url(#mask-2)"></path>
                    <path d="M115.074919,106.032278 L115.074919,115.854585 C115.074919,117.137666 114.034413,118.175318 112.75019,118.175318 L101.930186,118.175318 C100.635118,118.175318 99.6094524,117.129675 99.6094524,115.854585 L99.6094524,106.032278 C99.6094524,104.745202 100.648817,103.712116 101.930186,103.712116 L112.75019,103.712116 C114.034413,103.712116 115.074919,104.749768 115.074919,106.032278 Z" id="Fill-16" fill="#AAD04A" mask="url(#mask-2)"></path>
                    <polygon id="Fill-17" fill="#798E39" mask="url(#mask-2)" points="86.5252204 118.637638 112.694312 118.637638 112.694312 118.175261 86.5252204 118.175261"></polygon>
                    <path d="M100.576329,104.145327 L100.576329,117.746102 C99.9912947,117.321452 99.6094524,116.63368 99.6094524,115.854585 C99.6094524,116.629684 99.2264687,117.317457 98.6420046,117.734116 L98.6420046,104.157884 C99.2264687,104.570548 99.6094524,105.257749 99.6094524,106.032278 C99.6094524,105.257749 99.9912947,104.566552 100.576329,104.145327 Z" id="Fill-18" fill="#95B23C" mask="url(#mask-2)"></path>
                    <path d="M117.314603,114.347193 C118.115958,114.347193 118.764919,114.996724 118.764919,115.796367 C118.764919,117.195884 118.178742,117.746102 117.314603,117.746102 L117.314603,121.141016 L115.073206,121.141016 C115.073206,113.563531 115.073206,120.207814 115.073206,115.580046 C115.073206,114.134297 116.647378,114.347193 117.314603,114.347193 Z" id="Fill-19" fill="#AAD04A" mask="url(#mask-2)"></path>
                    <path d="M117.312891,120.891021 L81.9031601,120.891021 C81.9031601,119.649606 82.9065661,118.637638 84.1548306,118.637638 L115.06122,118.637638 C116.303777,118.637638 117.312891,119.64561 117.312891,120.891021 Z" id="Fill-20" fill="#C0D963" mask="url(#mask-2)"></path>
                    <path d="M117.312891,120.891021 C117.312891,122.119879 116.31291,123.144404 115.06122,123.144404 L84.1548306,123.144404 C82.911703,123.144404 81.9031601,122.132436 81.9031601,120.891021 L117.312891,120.891021 Z" id="Fill-21" fill="#8BA23C" mask="url(#mask-2)"></path>
                    <path d="M103.958687,109.702302 C104.388473,110.489387 104.540297,110.585276 105.198961,110.943717 C104.407879,111.376928 104.322835,111.518478 103.958687,112.185132 C103.527188,111.39348 103.375364,111.306153 102.717271,110.943717 C103.37936,110.581281 103.527188,110.493954 103.958687,109.702302 Z" id="Fill-22" fill="#95B23C" mask="url(#mask-2)"></path>
                    <path d="M110.722831,109.702302 C111.152617,110.489387 111.305582,110.585276 111.963675,110.943717 C111.172594,111.376928 111.086979,111.518478 110.722831,112.185132 C110.291903,111.39348 110.140079,111.306153 109.481415,110.943717 C110.143503,110.581281 110.291903,110.493954 110.722831,109.702302 Z" id="Fill-23" fill="#95B23C" mask="url(#mask-2)"></path>
                    <path d="M81.9031601,114.093202 C81.1023759,114.093202 80.4528445,114.742733 80.4528445,115.542376 C80.4528445,116.941893 81.0384501,117.492111 81.9031601,117.492111 L81.9031601,120.891021 L84.1434153,120.891021 C84.1434153,113.255889 84.1434153,120.053708 84.1434153,115.326056 C84.1434153,113.888868 82.5846543,114.093202 81.9031601,114.093202 Z" id="Fill-24" fill="#AAD04A" mask="url(#mask-2)"></path>
                    <polygon id="Fill-25" fill="#C7A06A" mask="url(#mask-2)" points="148.182181 126.37722 158.053402 126.37722 158.053402 118.146837 148.182181 118.146837"></polygon>
                    <polygon id="Fill-26" fill="#E0B96C" mask="url(#mask-2)" points="143.844933 126.37722 153.716154 126.37722 153.716154 118.146837 143.844933 118.146837"></polygon>
                    <path d="M150.211824,119.233517 L150.211824,118.256367 L147.529225,118.256367 L147.529225,119.247216 L147.535503,119.247216 L147.572032,119.327694 C147.598858,119.387053 147.683332,119.387053 147.710158,119.327694 L147.746687,119.247216 L147.758673,119.247216 L147.795202,119.327694 C147.822028,119.387053 147.906501,119.387053 147.933327,119.327694 L147.969856,119.247216 L147.981842,119.247216 L148.018371,119.327694 C148.045197,119.387053 148.129671,119.387053 148.156497,119.327694 L148.193026,119.247216 L148.205582,119.247216 L148.242111,119.327694 C148.268937,119.387053 148.353411,119.387053 148.380237,119.327694 L148.416766,119.247216 L148.428752,119.247216 L148.465281,119.327694 C148.492677,119.387624 148.57658,119.387624 148.603977,119.327694 L148.640506,119.247216 L148.652492,119.247216 L148.689021,119.327694 C148.715847,119.387624 148.80032,119.387624 148.827146,119.327694 L148.864246,119.247216 L148.876232,119.247216 L148.912761,119.328265 C148.939587,119.387624 149.02406,119.387624 149.050886,119.328265 L149.087986,119.247216 L149.099972,119.247216 L149.136501,119.327694 C149.163327,119.387053 149.2478,119.387053 149.274626,119.327694 L149.311155,119.247216 L149.323142,119.247216 L149.360241,119.328265 C149.387067,119.387624 149.471541,119.387624 149.498367,119.328265 L149.534896,119.247216 L149.546882,119.247216 L149.583981,119.328265 C149.610807,119.387624 149.695281,119.387624 149.722107,119.328265 L149.758636,119.247216 L149.771193,119.247216 L149.807722,119.328265 C149.834548,119.387624 149.919021,119.387624 149.945847,119.328265 L149.982947,119.247216 L149.995503,119.247216 L150.032603,119.328835 C150.059429,119.388195 150.143332,119.388195 150.170729,119.328835 L150.207828,119.247216 L150.211824,119.247216 L150.211824,119.238084 L150.214107,119.233517 L150.211824,119.233517 Z" id="Fill-27" fill="#8B4C22" mask="url(#mask-2)"></path>
                    <polygon id="Fill-28" fill="#C7A06A" mask="url(#mask-2)" points="142.132636 117.899067 152.003857 117.899067 152.003857 109.668684 142.132636 109.668684"></polygon>
                    <polygon id="Fill-29" fill="#E0B96C" mask="url(#mask-2)" points="137.795387 117.899067 147.666608 117.899067 147.666608 109.668684 137.795387 109.668684"></polygon>
                    <path d="M144.162278,110.755364 L144.162278,109.778784 L141.47968,109.778784 L141.47968,110.769063 L141.485958,110.769063 L141.522487,110.849541 C141.549313,110.9089 141.633787,110.909471 141.660613,110.849541 L141.697142,110.769063 L141.709698,110.769063 L141.745657,110.849541 C141.772483,110.9089 141.857527,110.9089 141.884353,110.849541 L141.920311,110.769063 L141.932868,110.769063 L141.969397,110.849541 C141.996223,110.9089 142.080696,110.9089 142.107522,110.849541 L142.144051,110.769063 L142.156037,110.769063 L142.192566,110.849541 C142.219392,110.9089 142.303865,110.9089 142.330691,110.849541 L142.36722,110.769063 L142.379777,110.769063 L142.416306,110.850111 C142.443132,110.909471 142.527606,110.909471 142.554432,110.850111 L142.590961,110.769063 L142.603517,110.769063 L142.640046,110.850111 C142.666872,110.909471 142.751346,110.909471 142.778172,110.850111 L142.814701,110.769063 L142.826687,110.769063 L142.863787,110.850111 C142.890613,110.909471 142.974515,110.909471 143.001912,110.850111 L143.038441,110.769063 L143.050427,110.769063 L143.086956,110.849541 C143.113782,110.9089 143.198255,110.9089 143.225081,110.849541 L143.26161,110.769063 L143.274167,110.769063 L143.310696,110.850111 C143.337522,110.909471 143.421995,110.909471 143.448821,110.850111 L143.48535,110.769063 L143.497907,110.769063 L143.534436,110.850111 C143.561262,110.909471 143.645735,110.909471 143.672561,110.850111 L143.709661,110.769063 L143.721647,110.769063 L143.758747,110.850111 C143.785573,110.909471 143.869476,110.909471 143.896872,110.850111 L143.933401,110.769063 L143.945958,110.769063 L143.983058,110.850682 C144.009884,110.910042 144.094357,110.910042 144.121183,110.850682 L144.158283,110.769063 L144.162278,110.769063 L144.162278,110.75993 L144.164561,110.755364 L144.162278,110.755364 Z" id="Fill-30" fill="#8B4C22" mask="url(#mask-2)"></path>
                    <polygon id="Fill-31" fill="#C7A06A" mask="url(#mask-2)" points="137.427814 126.37722 147.299035 126.37722 147.299035 118.146837 137.427814 118.146837"></polygon>
                    <polygon id="Fill-32" fill="#E0B96C" mask="url(#mask-2)" points="133.089995 126.37722 142.961216 126.37722 142.961216 118.146837 133.089995 118.146837"></polygon>
                    <path d="M139.457457,119.233517 L139.457457,118.256367 L136.774858,118.256367 L136.774858,119.247216 L136.781137,119.247216 L136.817666,119.327694 C136.844492,119.387053 136.928965,119.387053 136.955791,119.327694 L136.99232,119.247216 L137.004306,119.247216 L137.040835,119.327694 C137.067661,119.387053 137.152135,119.387053 137.178961,119.327694 L137.21549,119.247216 L137.227476,119.247216 L137.264005,119.327694 C137.290831,119.387053 137.375304,119.387053 137.40213,119.327694 L137.438659,119.247216 L137.451216,119.247216 L137.487745,119.327694 C137.514571,119.387053 137.599044,119.387053 137.62587,119.327694 L137.662399,119.247216 L137.674385,119.247216 L137.710914,119.327694 C137.73774,119.387624 137.822213,119.387624 137.849039,119.327694 L137.886139,119.247216 L137.898125,119.247216 L137.934654,119.327694 C137.96148,119.387624 138.045954,119.387624 138.07278,119.327694 L138.109879,119.247216 L138.121865,119.247216 L138.158394,119.328265 C138.18522,119.387624 138.269694,119.387624 138.29652,119.328265 L138.333049,119.247216 L138.345606,119.247216 L138.382135,119.327694 C138.408961,119.387053 138.493434,119.387053 138.52026,119.327694 L138.556789,119.247216 L138.568775,119.247216 L138.605875,119.328265 C138.632701,119.387624 138.716603,119.387624 138.743429,119.328265 L138.780529,119.247216 L138.792515,119.247216 L138.829615,119.328265 C138.856441,119.387624 138.940914,119.387624 138.96774,119.328265 L139.004269,119.247216 L139.016826,119.247216 L139.053355,119.328265 C139.080181,119.387624 139.164654,119.387624 139.19148,119.328265 L139.22858,119.247216 L139.240566,119.247216 L139.278237,119.328835 C139.305063,119.388195 139.388965,119.388195 139.415791,119.328835 L139.453462,119.247216 L139.457457,119.247216 L139.457457,119.238084 L139.459169,119.233517 L139.457457,119.233517 Z" id="Fill-33" fill="#8B4C22" mask="url(#mask-2)"></path>
                    <polygon id="Fill-34" fill="#7C481D" mask="url(#mask-2)" points="119.449267 113.106348 130.672403 113.106348 130.672403 112.519144 119.449267 112.519144"></polygon>
                    <polygon id="Fill-35" fill="#FCAF17" mask="url(#mask-2)" points="119.449267 112.51903 130.672403 112.51903 130.672403 106.472852 119.449267 106.472852"></polygon>
                    <polygon id="Fill-36" fill="#F79B22" mask="url(#mask-2)" points="119.449267 112.51903 130.672403 112.51903 130.672403 111.928059 119.449267 111.928059"></polygon>
                    <polygon id="Fill-37" fill="#7C481D" mask="url(#mask-2)" points="119.448696 119.739787 130.671832 119.739787 130.671832 119.152583 119.448696 119.152583"></polygon>
                    <polygon id="Fill-38" fill="#FCAF17" mask="url(#mask-2)" points="119.449267 119.152469 130.672403 119.152469 130.672403 113.106291 119.449267 113.106291"></polygon>
                    <polygon id="Fill-39" fill="#F79B22" mask="url(#mask-2)" points="119.449267 119.152469 130.672403 119.152469 130.672403 118.565665 119.449267 118.565665"></polygon>
                    <polygon id="Fill-40" fill="#7C481D" mask="url(#mask-2)" points="119.449267 126.37722 130.672403 126.37722 130.672403 125.78625 119.449267 125.78625"></polygon>
                    <polygon id="Fill-41" fill="#FCAF17" mask="url(#mask-2)" points="119.449267 125.785907 130.672403 125.785907 130.672403 119.739729 119.449267 119.739729"></polygon>
                    <polygon id="Fill-42" fill="#F79B22" mask="url(#mask-2)" points="119.449267 125.785907 130.672403 125.785907 130.672403 125.198703 119.449267 125.198703"></polygon>
                    <path d="M123.737429,108.730858 L126.383499,108.730858 C126.500506,108.730858 126.595824,108.890102 126.595824,109.087016 L126.595824,109.140097 C126.595824,109.337012 126.500506,109.496255 126.383499,109.496255 L123.737429,109.496255 C123.620422,109.496255 123.525104,109.337012 123.525104,109.140097 L123.525104,109.087016 C123.525104,108.890102 123.620422,108.730858 123.737429,108.730858 Z" id="Fill-43" fill="#F5F7F7" mask="url(#mask-2)"></path>
                    <path d="M123.737429,115.364297 L126.383499,115.364297 C126.500506,115.364297 126.595824,115.526965 126.595824,115.721026 L126.595824,115.773536 C126.595824,115.97045 126.500506,116.129694 126.383499,116.129694 L123.737429,116.129694 C123.620422,116.129694 123.525104,115.97045 123.525104,115.773536 L123.525104,115.721026 C123.525104,115.526965 123.620422,115.364297 123.737429,115.364297 Z" id="Fill-44" fill="#F5F7F7" mask="url(#mask-2)"></path>
                    <path d="M123.737429,122.00116 L126.383499,122.00116 C126.500506,122.00116 126.595824,122.160404 126.595824,122.357318 L126.595824,122.406974 C126.595824,122.603889 126.500506,122.763132 126.383499,122.763132 L123.737429,122.763132 C123.620422,122.763132 123.525104,122.603889 123.525104,122.406974 L123.525104,122.357318 C123.525104,122.160404 123.620422,122.00116 123.737429,122.00116 Z" id="Fill-45" fill="#F5F7F7" mask="url(#mask-2)"></path>
                </g>
            </g>
        </g>
    </g>
</svg>