<?xml version="1.0" encoding="UTF-8" standalone="no"?><!DOCTYPE svg PUBLIC "-//W3C//DTD SVG 1.1//EN" "http://www.w3.org/Graphics/SVG/1.1/DTD/svg11.dtd"><svg width="100%" height="100%" viewBox="0 0 150 150" version="1.1" xmlns="http://www.w3.org/2000/svg" xmlns:xlink="http://www.w3.org/1999/xlink" xml:space="preserve" xmlns:serif="http://www.serif.com/" style="fill-rule:evenodd;clip-rule:evenodd;stroke-linejoin:round;stroke-miterlimit:1.41421;"><g id="レイヤー-1" serif:id="レイヤー 1"><path d="M148.421,96.594c-0.866,-2.308 -2.632,-4.167 -4.891,-5.152c-2.261,-0.985 -4.823,-1.012 -7.104,-0.077c-1.883,0.769 -3.55,1.235 -4.837,1.235c-5.463,0 -5.908,-4.874 -5.908,-7.385c0,-5.908 3.694,-16.098 7.681,-27.321c6.94,-21.711 11.223,-37.514 -4.875,-37.514c-14.62,0 -26.583,16.542 -37.069,16.542c-6.941,0 -6.794,-5.466 -7.975,-17.723c-0.591,-10.485 -2.659,-19.199 -11.667,-19.199c-5.022,0 -9.156,2.659 -12.996,6.499c-7.68,7.974 -23.483,31.457 -33.674,48.735c-11.371,19.347 -25.106,42.239 -25.106,55.088c0,9.895 5.316,16.098 15.803,16.098c16.835,0 23.925,-6.646 29.684,-20.234c3.693,-9.895 8.714,-21.71 12.997,-30.718c0.591,-1.034 1.33,-1.624 1.92,-1.624c1.182,0 1.476,1.033 1.772,2.51c2.068,8.713 15.064,9.6 29.98,-1.624c1.478,-1.183 2.954,-1.773 2.364,0.738c-1.034,5.317 -7.829,18.165 -7.829,30.867c0,13.439 11.521,19.789 23.483,20.085c13.129,0.265 25.834,-6.989 36.081,-15.643c3.409,-2.879 4.64,-7.596 3.072,-11.772l-0.906,-2.411Z" style="fill:#e85258;fill-rule:nonzero;"/></g></svg>