<?xml version="1.0" encoding="UTF-8"?>
<svg width="81px" height="80px" viewBox="0 0 81 80" version="1.1" xmlns="http://www.w3.org/2000/svg" xmlns:xlink="http://www.w3.org/1999/xlink">
    <!-- Generator: Sketch 49 (51002) - http://www.bohemiancoding.com/sketch -->
    <title>rule-img01</title>
    <desc>Created with Sketch.</desc>
    <defs></defs>
    <g id="smp" stroke="none" stroke-width="1" fill="none" fill-rule="evenodd">
        <g id="ルールとマナー" transform="translate(-239.000000, -1840.000000)" fill="#E85258">
            <g id="Group-2" transform="translate(239.000000, 1840.000000)">
                <path d="M40.2231111,66.4103704 C28.3558519,66.4103704 18.7044938,56.7564444 18.7044938,44.8891852 L18.7044938,37.4272593 C18.7044938,36.6051358 18.7586173,35.7929877 18.8498765,34.9960494 C31.4247901,34.0398025 40.0984691,31.5209877 45.9235556,28.8914568 C49.5666173,31.2169877 54.6261728,33.6696296 61.6675556,35.8037531 C61.709037,36.3407407 61.7461728,36.8777284 61.7461728,37.4272593 L61.7461728,44.8891852 C61.7461728,56.7564444 52.0948148,66.4103704 40.2231111,66.4103704 M66.5306667,44.8891852 L66.5306667,37.4272593 C66.5306667,22.897679 54.7552593,11.121679 40.2231111,11.121679 C25.6954074,11.121679 13.9194074,22.897679 13.9194074,37.4272593 L13.9194074,44.8891852 C13.9194074,59.4174815 25.6954074,71.1928889 40.2231111,71.1928889 C54.7552593,71.1928889 66.5306667,59.4174815 66.5306667,44.8891852" id="Fill-2"></path>
                <path d="M76.5492346,28.2981728 C72.3395556,12.0461235 57.6034568,0.00444444444 40.0482963,0 C22.4352593,0.00444444444 7.6614321,12.1298765 3.50962963,28.4668642 C1.44859259,29.3513086 0,31.3979259 0,33.7839012 L0,48.249284 C0,51.4428642 2.58992593,54.0352593 5.78350617,54.0352593 C8.97708642,54.0352593 11.5714568,51.4428642 11.5714568,48.249284 L11.5714568,33.7839012 C11.5714568,31.5333333 10.2676543,29.6056296 8.39041975,28.6475062 C9.95604938,23.2159012 12.8581728,18.3464691 16.7556543,14.4465185 C22.7304691,8.47160494 30.9585185,4.78004938 40.0482963,4.78004938 C49.1425185,4.78004938 57.3698765,8.47160494 63.3453827,14.4465185 C67.2969877,18.4005926 70.2198519,23.3531852 71.7647407,28.876642 C70.1203951,29.8946173 69.0080988,31.7039012 69.0080988,33.7839012 L69.0080988,48.249284 C69.0080988,50.5420247 70.3533827,52.5067654 72.2891852,53.441679 C71.5192099,56.3438025 70.4112593,59.0966914 69.0956049,61.5179259 C67.805037,63.8931358 66.318716,65.9441975 64.7820247,67.5135802 C63.6324938,66.648 62.2166914,66.116642 60.6680494,66.116642 C56.8744691,66.116642 53.7973333,69.1937778 53.7973333,72.9892346 C53.7973333,76.7846914 56.8744691,79.8637037 60.6680494,79.8637037 C64.4653827,79.8637037 67.5425185,76.7846914 67.5425185,72.9892346 C67.5425185,72.1443951 67.3718519,71.3424198 67.0885926,70.593284 L67.4423704,70.264 C71.2523457,66.3728395 74.4339753,60.4728889 76.0871111,53.8792099 C78.6562963,53.2899753 80.5801481,50.9978272 80.5801481,48.249284 L80.5801481,33.7839012 C80.5801481,31.2066173 78.8809877,29.0454321 76.5492346,28.2981728" id="Fill-3"></path>
                <path d="M29.8611358,39.0263704 C31.6754568,39.0263704 33.1485432,40.4994568 33.1485432,42.3137778 C33.1485432,44.1281975 31.6754568,45.6011852 29.8611358,45.6011852 C28.046716,45.6011852 26.5737284,44.1281975 26.5737284,42.3137778 C26.5737284,40.4994568 28.046716,39.0263704 29.8611358,39.0263704 Z" id="Fill-4"></path>
                <path d="M50.2396049,39.0263704 C52.0539259,39.0263704 53.5270123,40.4994568 53.5270123,42.3137778 C53.5270123,44.1281975 52.0539259,45.6011852 50.2396049,45.6011852 C48.4251852,45.6011852 46.9520988,44.1281975 46.9520988,42.3137778 C46.9520988,40.4994568 48.4251852,39.0263704 50.2396049,39.0263704 Z" id="Fill-5"></path>
            </g>
        </g>
    </g>
</svg>