<?xml version="1.0" encoding="UTF-8"?>
<svg width="63px" height="60px" viewBox="0 0 63 60" version="1.1" xmlns="http://www.w3.org/2000/svg" xmlns:xlink="http://www.w3.org/1999/xlink">
    <!-- Generator: Sketch 49 (51002) - http://www.bohemiancoding.com/sketch -->
    <title>rule-img02</title>
    <desc>Created with Sketch.</desc>
    <defs></defs>
    <g id="smp" stroke="none" stroke-width="1" fill="none" fill-rule="evenodd">
        <g id="ルールとマナー" transform="translate(-609.000000, -1850.000000)" fill="#E85258">
            <path d="M671.62329,1872.71523 C671.179984,1871.34188 669.902983,1870.41034 668.460243,1870.41034 L649.369139,1870.41034 L643.554244,1852.30629 C643.112935,1850.93294 641.834937,1850 640.391198,1850 C638.947458,1850 637.670458,1850.93294 637.229149,1852.30629 L631.414255,1870.41034 L612.323151,1870.41034 C610.88041,1870.41034 609.602411,1871.34188 609.160104,1872.71523 C608.717797,1874.08858 609.213021,1875.59043 610.385186,1876.43121 L625.865943,1887.54571 L619.907274,1905.63747 C619.453984,1907.01042 619.941221,1908.51577 621.108393,1909.36524 C622.277563,1910.21481 623.861083,1910.21081 625.02526,1909.35785 L640.391198,1898.09818 L655.757135,1909.35785 C656.922311,1910.21081 658.505831,1910.21481 659.674002,1909.36524 C660.842172,1908.51577 661.328411,1907.01042 660.877118,1905.63747 L654.916452,1887.54571 L670.39721,1876.43121 C671.569374,1875.59043 672.064598,1874.08858 671.62329,1872.71523" id="Fill-1"></path>
        </g>
    </g>
</svg>