<svg width="330" height="38" viewBox="0 0 330 38" fill="none" xmlns="http://www.w3.org/2000/svg">
<circle cx="31" cy="8" r="7" fill="#E85258" stroke="#E85258" stroke-width="2"/>
<circle cx="174" cy="9" r="7" stroke="#E85258" stroke-width="2"/>
<line x1="37.4717" y1="9" x2="167.716" y2="9" stroke="#E85258" stroke-width="2"/>
<circle cx="318" cy="9" r="7" stroke="#E85258" stroke-width="2"/>
<line x1="181.283" y1="9" x2="311.528" y2="9" stroke="#E85258" stroke-width="2"/>
<path d="M11.4 32.18H9.156C9.216 31.712 9.264 31.184 9.312 30.584C9.336 30.392 9.36 29.984 9.36 29.984H4.272C4.344 29.66 4.404 29.312 4.476 28.964H9.132V27.74H4.716C4.776 27.416 4.836 27.092 4.884 26.792L3.972 26.708H9.744V28.292H11.232V25.388H0.816V28.292H2.232V26.708H3.444C3.192 28.244 2.808 30.236 2.46 31.472L3.912 31.58L3.996 31.232H7.824C7.8 31.58 7.764 31.892 7.728 32.18H0.624V33.488H7.536C7.404 34.112 7.248 34.46 7.08 34.604C6.924 34.736 6.756 34.76 6.504 34.76C6.168 34.76 5.376 34.748 4.572 34.676C4.848 35.06 5.04 35.624 5.064 36.032C5.832 36.056 6.6 36.068 7.032 36.02C7.572 35.972 7.92 35.864 8.268 35.504C8.568 35.192 8.796 34.592 8.976 33.488H11.4V32.18ZM20.328 28.736H15.804V28.232H20.328V28.736ZM20.328 30.056H15.804V29.552H20.328V30.056ZM20.328 31.388H15.804V30.848H20.328V31.388ZM17.232 27.392H14.424V32.216H21.78V27.392H18.72V26.888H23.088V25.7H18.72V24.836H17.232V25.7H13.032V26.888H17.232V27.392ZM23.34 33.86V32.684H12.672V33.86H15.936C15.18 34.316 13.788 34.832 12.624 35.084C12.924 35.36 13.356 35.78 13.584 36.068C14.772 35.78 16.26 35.204 17.208 34.64L16.092 33.86H19.644L18.828 34.64C20.124 35.096 21.468 35.66 22.26 36.056L23.484 35.108C22.668 34.76 21.336 34.268 20.136 33.86H23.34ZM28.464 30.44C28.464 31.28 29.16 31.976 30 31.976C30.84 31.976 31.536 31.28 31.536 30.44C31.536 29.6 30.84 28.904 30 28.904C29.16 28.904 28.464 29.6 28.464 30.44ZM42.168 26.552V27.524H41.352V26.552H42.168ZM41.352 29.624V28.604H42.168V29.624H41.352ZM45.024 29.672V26.6H45.612V27.5C45.612 28.136 45.588 28.88 45.468 29.672H45.024ZM46.5 34.736C46.44 34.736 46.38 34.724 46.356 34.676C46.332 34.64 46.332 34.568 46.332 34.496V31.184C46.356 31.088 46.38 30.992 46.404 30.896H47.592V29.672H46.632C46.74 28.88 46.764 28.148 46.764 27.5V26.6H47.424V25.4H43.572V26.6H43.944V29.672H43.488V30.896H45.192C44.928 31.772 44.508 32.66 43.836 33.5C43.632 32.804 43.296 31.94 42.972 31.232L41.88 31.604C42.036 31.976 42.192 32.396 42.336 32.816L41.352 33.104V30.764H43.308V25.424H40.2V30.632C39.924 30.284 39.288 29.54 39.06 29.3V28.532H39.96V27.236H39.06V24.836H37.764V27.236H36.492V28.532H37.704C37.428 29.972 36.84 31.712 36.228 32.732C36.444 33.068 36.732 33.584 36.876 33.968C37.2 33.44 37.5 32.708 37.764 31.904V36.032H39.06V30.956C39.276 31.328 39.492 31.712 39.612 31.988L40.2 30.968V33.452C39.924 33.524 39.672 33.596 39.456 33.656L40.008 34.952C40.8 34.652 41.748 34.292 42.672 33.932C42.732 34.136 42.768 34.316 42.804 34.472L42.984 34.4C42.696 34.664 42.372 34.928 42.012 35.168C42.288 35.372 42.72 35.78 42.9 36.044C43.908 35.336 44.652 34.532 45.204 33.692V34.58C45.204 35.252 45.252 35.456 45.432 35.648C45.612 35.852 45.888 35.924 46.164 35.924H46.728C46.944 35.924 47.172 35.864 47.316 35.744C47.484 35.612 47.604 35.456 47.664 35.18C47.736 34.928 47.784 34.292 47.796 33.692C47.52 33.584 47.136 33.38 46.932 33.2C46.932 33.752 46.92 34.22 46.896 34.424C46.884 34.544 46.848 34.64 46.812 34.676C46.788 34.724 46.728 34.736 46.656 34.736H46.5ZM52.668 32.456H55.596C55.308 32.9 54.936 33.272 54.492 33.572C53.76 33.38 53.004 33.2 52.26 33.044L52.668 32.456ZM50.64 28.304H51.9V29.42H50.64V28.304ZM53.244 26.492H54.6V27.176H53.244V26.492ZM57.384 28.304V29.42H55.944V28.304H57.384ZM53.244 29.42V28.304H54.6V29.42H53.244ZM59.484 32.456V31.304H53.424C53.592 31.04 53.76 30.788 53.904 30.536H58.812V27.176H55.944V26.492H59.196V25.256H48.744V26.492H51.9V27.176H49.296V30.536H52.272C52.116 30.788 51.96 31.04 51.792 31.304H48.528V32.456H51.024C50.664 32.972 50.316 33.44 50.016 33.824L51.396 34.256L51.528 34.076C51.924 34.16 52.308 34.256 52.692 34.352C51.624 34.628 50.328 34.772 48.744 34.832C48.96 35.144 49.188 35.648 49.284 36.056C51.612 35.876 53.388 35.564 54.732 34.904C56.088 35.3 57.3 35.72 58.212 36.092L59.088 34.928C58.272 34.64 57.228 34.316 56.064 33.992C56.508 33.572 56.88 33.068 57.18 32.456H59.484Z" fill="#E85258"/>
<path d="M147.072 24.86C146.424 26.564 145.32 28.268 144.18 29.348C144.42 29.684 144.792 30.464 144.924 30.8C145.26 30.464 145.596 30.092 145.92 29.672V36.008H147.276V27.608C147.708 26.852 148.08 26.06 148.392 25.292L147.072 24.86ZM152.544 34.316V31.928H155.136V30.584H152.544V28.496H155.46V27.152H152.712L153.24 26.552C152.64 26.024 151.416 25.268 150.528 24.812L149.58 25.832C150.216 26.192 150.996 26.696 151.584 27.152H148.176V28.496H151.092V30.584H148.56V31.928H151.092V34.316H147.9V35.66H155.64V34.316H152.544ZM161.964 25.424H156.66V26.72H161.964V25.424ZM160.344 28.892V30.416H158.412V28.892H160.344ZM161.724 31.7V27.62H157.056V30.668C157.056 32.048 156.984 33.92 156.192 35.204C156.504 35.372 157.092 35.816 157.32 36.056C158.064 34.88 158.316 33.164 158.388 31.7H161.724ZM167.628 28.88H163.776V27.32C165.072 27.008 166.464 26.564 167.556 26.036L166.296 24.956C165.6 25.376 164.484 25.808 163.368 26.132L162.384 25.904V29.216C162.384 30.992 162.216 33.368 160.548 35.06C160.884 35.228 161.412 35.72 161.604 36.02C163.2 34.424 163.644 32.096 163.752 30.26H165.144V36.044H166.56V30.26H167.628V28.88ZM172.464 30.44C172.464 31.28 173.16 31.976 174 31.976C174.84 31.976 175.536 31.28 175.536 30.44C175.536 29.6 174.84 28.904 174 28.904C173.16 28.904 172.464 29.6 172.464 30.44ZM183.984 28.244C183.852 29.12 183.66 29.924 183.408 30.668C182.892 30.032 182.34 29.42 181.824 28.868L180.804 29.672C181.464 30.404 182.172 31.256 182.808 32.108C182.196 33.26 181.368 34.184 180.252 34.832C180.552 35.096 181.044 35.66 181.212 35.948C182.22 35.276 183.036 34.412 183.672 33.356C184.02 33.896 184.296 34.4 184.488 34.832L185.628 33.86C185.352 33.284 184.92 32.612 184.392 31.916C184.824 30.884 185.148 29.72 185.376 28.424L183.984 28.244ZM185.748 30.368C186.288 31.184 186.804 32.276 186.984 32.984L188.22 32.348C188.028 31.64 187.452 30.608 186.888 29.816L185.748 30.368ZM191.568 27.5H190.284V24.836H188.88V27.5H186.264V26.684H184.044V24.848H182.676V26.684H180.588V28.004H185.868V28.868H188.88V34.268C188.88 34.46 188.808 34.52 188.592 34.52C188.388 34.52 187.74 34.532 187.068 34.496C187.272 34.928 187.476 35.612 187.524 36.032C188.52 36.032 189.228 35.972 189.684 35.72C190.14 35.492 190.284 35.072 190.284 34.268V28.868H191.568V27.5ZM194.784 27.584H203.448V26.228H199.116V24.848H197.628V26.228H193.356V29.252C193.356 30.98 193.272 33.5 192.288 35.216C192.624 35.372 193.26 35.78 193.524 36.02C194.604 34.148 194.784 31.184 194.784 29.252V27.584ZM201.084 29.36C200.436 28.796 199.14 28.076 198.18 27.608L197.232 28.556C198.216 29.06 199.476 29.864 200.052 30.428L201.084 29.36ZM195.84 35C196.38 34.04 196.596 32.456 196.728 31.076L195.444 30.8C195.324 32.132 195.072 33.524 194.568 34.436L195.84 35ZM198.948 34.544C198.612 34.544 198.564 34.484 198.564 34.052V29.876H197.148V34.064C197.148 35.396 197.448 35.816 198.72 35.816H200.052C201.168 35.816 201.528 35.24 201.66 33.188C201.288 33.092 200.7 32.864 200.4 32.612C200.352 34.268 200.28 34.544 199.92 34.544H198.948ZM200.88 30.98C201.564 32.252 202.188 33.92 202.344 34.988L203.748 34.412C203.556 33.32 202.86 31.736 202.152 30.488L200.88 30.98Z" fill="#E85258"/>
<path d="M314.628 26.936C314.244 26.492 313.392 25.88 312.72 25.484L312.036 26.444C312.696 26.888 313.524 27.536 313.896 28.004L314.628 26.936ZM311.484 29.468C312.18 29.876 313.056 30.524 313.452 30.956L314.172 29.816C313.74 29.396 312.852 28.808 312.156 28.436L311.484 29.468ZM310.404 25.496C310.272 26.336 309.996 27.548 309.744 28.304L310.644 28.556C310.944 27.86 311.292 26.72 311.604 25.76L310.404 25.496ZM308.076 28.304C308.016 27.56 307.776 26.42 307.464 25.556L306.468 25.82C306.744 26.684 306.984 27.848 307.008 28.58L308.076 28.304ZM311.352 32.252C311.1 31.916 309.96 30.572 309.612 30.224V30.14H311.388V28.808H309.612V24.884H308.292V28.808H306.48V30.14H307.848C307.476 31.232 306.864 32.516 306.264 33.248C306.48 33.644 306.792 34.292 306.912 34.724C307.428 34.004 307.908 32.888 308.292 31.772V36.008H309.612V31.796C309.96 32.348 310.296 32.972 310.476 33.356L311.352 32.252ZM317.7 32.528L317.484 31.196L316.26 31.424V24.824H314.916V31.664L311.352 32.3L311.568 33.632L314.916 33.032V36.032H316.26V32.792L317.7 32.528ZM323.184 32.072V34.472H321.564L322.548 34.052C322.368 33.5 321.9 32.684 321.444 32.072H323.184ZM321.828 28.412C322.692 27.692 323.436 26.912 323.952 26.192C324.48 26.912 325.272 27.692 326.16 28.412H321.828ZM326.352 32.072C326.088 32.708 325.608 33.584 325.212 34.148L325.992 34.472H324.684V32.072H328.38V30.848H324.684V29.66H326.976V29.036C327.576 29.468 328.2 29.864 328.8 30.176C329.064 29.732 329.388 29.252 329.748 28.892C327.852 28.124 325.92 26.612 324.624 24.8H323.148C322.26 26.24 320.34 28.04 318.3 29.036C318.612 29.336 319.008 29.852 319.188 30.188C319.8 29.864 320.412 29.48 320.976 29.072V29.66H323.184V30.848H319.536V32.072H321.372L320.28 32.54C320.7 33.128 321.096 33.932 321.276 34.472H318.936V35.696H329.088V34.472H326.376C326.796 33.968 327.264 33.236 327.72 32.576L326.352 32.072Z" fill="#E85258"/>
</svg>
