<svg width="303" height="38" viewBox="0 0 303 38" fill="none" xmlns="http://www.w3.org/2000/svg">
<circle cx="8" cy="8" r="7" fill="#E85258" stroke="#E85258" stroke-width="2"/>
<circle cx="151" cy="9" r="7" fill="#E85258" stroke="#E85258" stroke-width="2"/>
<line x1="14.4717" y1="9" x2="144.716" y2="9" stroke="#E85258" stroke-width="2"/>
<circle cx="295" cy="9" r="7" stroke="#E85258" stroke-width="2"/>
<line x1="158.284" y1="9" x2="288.529" y2="9" stroke="#E85258" stroke-width="2"/>
<path d="M10.332 26.888C9.948 26.888 9.636 26.576 9.636 26.204C9.636 25.82 9.948 25.508 10.332 25.508C10.704 25.508 11.016 25.82 11.016 26.204C11.016 26.576 10.704 26.888 10.332 26.888ZM2.676 26.48C2.28 26.48 1.596 26.432 1.248 26.384V28.076C1.56 28.052 2.124 28.028 2.676 28.028H8.268C8.1 29.06 7.644 30.416 6.852 31.412C5.88 32.636 4.536 33.668 2.148 34.232L3.456 35.66C5.604 34.976 7.2 33.788 8.28 32.348C9.288 31.016 9.804 29.156 10.08 27.98L10.176 27.62C10.224 27.632 10.284 27.632 10.332 27.632C11.112 27.632 11.76 26.984 11.76 26.204C11.76 25.412 11.112 24.764 10.332 24.764C9.54 24.764 8.892 25.412 8.892 26.204C8.892 26.288 8.904 26.36 8.916 26.432C8.652 26.468 8.4 26.48 8.232 26.48H2.676ZM20.94 28.04V33.02H15.144V28.04H20.94ZM22.548 27.656C22.548 27.296 22.548 26.852 22.572 26.492C22.14 26.516 21.684 26.516 21.384 26.516H14.784C14.46 26.516 14.004 26.504 13.512 26.492C13.536 26.828 13.536 27.32 13.536 27.656V33.524C13.536 34.1 13.512 35.144 13.5 35.204H15.156L15.144 34.544H20.928L20.916 35.204H22.572C22.572 35.156 22.548 34.004 22.548 33.536V27.656ZM33.492 26.252C33.168 26.336 32.784 26.348 32.544 26.348H27C26.604 26.348 25.92 26.288 25.56 26.252V27.944C25.872 27.92 26.448 27.896 26.988 27.896H32.58C32.424 28.916 31.968 30.284 31.176 31.28C30.204 32.492 28.848 33.536 26.472 34.088L27.78 35.528C29.916 34.844 31.512 33.656 32.604 32.216C33.6 30.884 34.128 29.024 34.404 27.848C34.464 27.584 34.56 27.248 34.668 27.008L33.492 26.252ZM44.3336 27.476C43.7336 28.256 42.4736 29.252 41.2496 29.972C40.3016 30.524 38.5616 31.268 37.0136 31.592L37.8176 32.984C38.8256 32.708 40.1456 32.18 41.2016 31.676V34.76C41.2016 35.18 41.1776 35.816 41.1416 36.056H42.9176C42.8456 35.816 42.8336 35.18 42.8336 34.76V30.764C43.9256 30.056 44.9696 29.216 45.5336 28.592L44.3336 27.476ZM48.8696 31.328C49.3136 31.292 50.1176 31.268 50.8016 31.268H57.2456C57.7496 31.268 58.3616 31.316 58.6496 31.328V29.444C58.3376 29.468 57.7976 29.516 57.2456 29.516H50.8016C50.1776 29.516 49.3016 29.48 48.8696 29.444V31.328ZM61.7096 35.528C62.7416 34.616 63.4856 33.44 63.8456 32.084C64.1696 30.872 64.2056 28.34 64.2056 26.924C64.2056 26.432 64.2776 25.892 64.2896 25.844H62.5256C62.5976 26.132 62.6336 26.456 62.6336 26.936C62.6336 28.388 62.6216 30.656 62.2856 31.688C61.9496 32.708 61.3016 33.812 60.2456 34.556L61.7096 35.528ZM66.7976 35.564C66.9536 35.444 67.0736 35.336 67.3256 35.204C68.6696 34.52 70.3976 33.224 71.3936 31.928L70.4696 30.608C69.6656 31.772 68.4776 32.72 67.5056 33.14V26.864C67.5056 26.324 67.5776 25.856 67.5896 25.82H65.8016C65.8136 25.856 65.8976 26.312 65.8976 26.852V33.848C65.8976 34.172 65.8496 34.508 65.8016 34.736L66.7976 35.564Z" fill="#E85258"/>
<path d="M125.072 24.86C124.424 26.564 123.32 28.268 122.18 29.348C122.42 29.684 122.792 30.464 122.924 30.8C123.26 30.464 123.596 30.092 123.92 29.672V36.008H125.276V27.608C125.708 26.852 126.08 26.06 126.392 25.292L125.072 24.86ZM130.544 34.316V31.928H133.136V30.584H130.544V28.496H133.46V27.152H130.712L131.24 26.552C130.64 26.024 129.416 25.268 128.528 24.812L127.58 25.832C128.216 26.192 128.996 26.696 129.584 27.152H126.176V28.496H129.092V30.584H126.56V31.928H129.092V34.316H125.9V35.66H133.64V34.316H130.544ZM139.964 25.424H134.66V26.72H139.964V25.424ZM138.344 28.892V30.416H136.412V28.892H138.344ZM139.724 31.7V27.62H135.056V30.668C135.056 32.048 134.984 33.92 134.192 35.204C134.504 35.372 135.092 35.816 135.32 36.056C136.064 34.88 136.316 33.164 136.388 31.7H139.724ZM145.628 28.88H141.776V27.32C143.072 27.008 144.464 26.564 145.556 26.036L144.296 24.956C143.6 25.376 142.484 25.808 141.368 26.132L140.384 25.904V29.216C140.384 30.992 140.216 33.368 138.548 35.06C138.884 35.228 139.412 35.72 139.604 36.02C141.2 34.424 141.644 32.096 141.752 30.26H143.144V36.044H144.56V30.26H145.628V28.88ZM150.464 30.44C150.464 31.28 151.16 31.976 152 31.976C152.84 31.976 153.536 31.28 153.536 30.44C153.536 29.6 152.84 28.904 152 28.904C151.16 28.904 150.464 29.6 150.464 30.44ZM161.984 28.244C161.852 29.12 161.66 29.924 161.408 30.668C160.892 30.032 160.34 29.42 159.824 28.868L158.804 29.672C159.464 30.404 160.172 31.256 160.808 32.108C160.196 33.26 159.368 34.184 158.252 34.832C158.552 35.096 159.044 35.66 159.212 35.948C160.22 35.276 161.036 34.412 161.672 33.356C162.02 33.896 162.296 34.4 162.488 34.832L163.628 33.86C163.352 33.284 162.92 32.612 162.392 31.916C162.824 30.884 163.148 29.72 163.376 28.424L161.984 28.244ZM163.748 30.368C164.288 31.184 164.804 32.276 164.984 32.984L166.22 32.348C166.028 31.64 165.452 30.608 164.888 29.816L163.748 30.368ZM169.568 27.5H168.284V24.836H166.88V27.5H164.264V26.684H162.044V24.848H160.676V26.684H158.588V28.004H163.868V28.868H166.88V34.268C166.88 34.46 166.808 34.52 166.592 34.52C166.388 34.52 165.74 34.532 165.068 34.496C165.272 34.928 165.476 35.612 165.524 36.032C166.52 36.032 167.228 35.972 167.684 35.72C168.14 35.492 168.284 35.072 168.284 34.268V28.868H169.568V27.5ZM172.784 27.584H181.448V26.228H177.116V24.848H175.628V26.228H171.356V29.252C171.356 30.98 171.272 33.5 170.288 35.216C170.624 35.372 171.26 35.78 171.524 36.02C172.604 34.148 172.784 31.184 172.784 29.252V27.584ZM179.084 29.36C178.436 28.796 177.14 28.076 176.18 27.608L175.232 28.556C176.216 29.06 177.476 29.864 178.052 30.428L179.084 29.36ZM173.84 35C174.38 34.04 174.596 32.456 174.728 31.076L173.444 30.8C173.324 32.132 173.072 33.524 172.568 34.436L173.84 35ZM176.948 34.544C176.612 34.544 176.564 34.484 176.564 34.052V29.876H175.148V34.064C175.148 35.396 175.448 35.816 176.72 35.816H178.052C179.168 35.816 179.528 35.24 179.66 33.188C179.288 33.092 178.7 32.864 178.4 32.612C178.352 34.268 178.28 34.544 177.92 34.544H176.948ZM178.88 30.98C179.564 32.252 180.188 33.92 180.344 34.988L181.748 34.412C181.556 33.32 180.86 31.736 180.152 30.488L178.88 30.98Z" fill="#E85258"/>
<path d="M287.628 26.936C287.244 26.492 286.392 25.88 285.72 25.484L285.036 26.444C285.696 26.888 286.524 27.536 286.896 28.004L287.628 26.936ZM284.484 29.468C285.18 29.876 286.056 30.524 286.452 30.956L287.172 29.816C286.74 29.396 285.852 28.808 285.156 28.436L284.484 29.468ZM283.404 25.496C283.272 26.336 282.996 27.548 282.744 28.304L283.644 28.556C283.944 27.86 284.292 26.72 284.604 25.76L283.404 25.496ZM281.076 28.304C281.016 27.56 280.776 26.42 280.464 25.556L279.468 25.82C279.744 26.684 279.984 27.848 280.008 28.58L281.076 28.304ZM284.352 32.252C284.1 31.916 282.96 30.572 282.612 30.224V30.14H284.388V28.808H282.612V24.884H281.292V28.808H279.48V30.14H280.848C280.476 31.232 279.864 32.516 279.264 33.248C279.48 33.644 279.792 34.292 279.912 34.724C280.428 34.004 280.908 32.888 281.292 31.772V36.008H282.612V31.796C282.96 32.348 283.296 32.972 283.476 33.356L284.352 32.252ZM290.7 32.528L290.484 31.196L289.26 31.424V24.824H287.916V31.664L284.352 32.3L284.568 33.632L287.916 33.032V36.032H289.26V32.792L290.7 32.528ZM296.184 32.072V34.472H294.564L295.548 34.052C295.368 33.5 294.9 32.684 294.444 32.072H296.184ZM294.828 28.412C295.692 27.692 296.436 26.912 296.952 26.192C297.48 26.912 298.272 27.692 299.16 28.412H294.828ZM299.352 32.072C299.088 32.708 298.608 33.584 298.212 34.148L298.992 34.472H297.684V32.072H301.38V30.848H297.684V29.66H299.976V29.036C300.576 29.468 301.2 29.864 301.8 30.176C302.064 29.732 302.388 29.252 302.748 28.892C300.852 28.124 298.92 26.612 297.624 24.8H296.148C295.26 26.24 293.34 28.04 291.3 29.036C291.612 29.336 292.008 29.852 292.188 30.188C292.8 29.864 293.412 29.48 293.976 29.072V29.66H296.184V30.848H292.536V32.072H294.372L293.28 32.54C293.7 33.128 294.096 33.932 294.276 34.472H291.936V35.696H302.088V34.472H299.376C299.796 33.968 300.264 33.236 300.72 32.576L299.352 32.072Z" fill="#E85258"/>
</svg>
