<svg xmlns="http://www.w3.org/2000/svg" width="290" height="65" xmlns:v="https://vecta.io/nano"><path d="M287.15 48.94a1.73 1.73 0 0 0-1 .41 10.85 10.85 0 0 1-5.28 1.65c-2.05 0-5.67-1-5.67-2.12 0-.55.4-.9 1.5-1.64 7.86-5.4 12.85-15.65 12.85-25.16 0-10.87-6.56-19.9-17.64-19.9-16 0-26.08 12.3-28.07 24.08-2.6-.07-6-1-9.94-3.7a11.4 11.4 0 0 0 1.1-4.72c0-1.57-1.85-7.18-12-7.18a24.74 24.74 0 0 0-22.32 13.93 25 25 0 0 1-3.52-2 11.4 11.4 0 0 0 1.09-4.72c0-1.57-1.85-7.18-12-7.18-13.88 0-25.43 11.14-25.43 27.68a18.3 18.3 0 0 0 .23 2.86 12.84 12.84 0 0 1-4.79 1.77c-3.42 0-3.08-3.42-2.26-6.84 2.8-11.14 3.28-12.44 3.28-15.6 0-5.2-2.53-9-8.9-9a18 18 0 0 0-11.07 3.9c-1.44 1-1.78 1.16-2.4-.14-1.5-3.2-2.87-5.4-6.3-5.4s-5.6 1.64-7.86 7.66l-2.8 7.74c-2.25 1-7.43 2.17-14.68-2.82a11.41 11.41 0 0 0 1.09-4.72c0-1.57-1.85-7.18-12-7.18-13.88 0-25.43 11.14-25.43 27.68a18.41 18.41 0 0 0 .1 1.9c-2.34 1.42-4.72 2.6-6.12 2.6-2.53 0-2.73-2.26-2.73-3.42 0-2.73 1.7-7.45 3.55-12.65 3.2-10 5.2-17.36-2.26-17.36-6.77 0-12.3 7.66-17.16 7.66-3.2 0-3.14-2.53-3.7-8.2C38.35 4 37.4 0 33.22 0c-2.32 0-4.24 1.23-6 3-3.57 3.7-10.88 14.57-15.6 22.57C6.36 34.52 0 45.12 0 51.06c0 4.58 2.46 7.45 7.3 7.45 7.8 0 11.07-3.08 13.74-9.37 1.7-4.58 4-10 6-14.22.27-.48.62-.75.9-.75.55 0 .68.48.82 1.16 1 4 7 4.44 13.88-.75.68-.55 1.37-.82 1.1.34-.48 2.46-3.62 8.4-3.62 14.3 0 6.22 5.33 9.16 10.87 9.3 7.24.15 14.2-4.64 19.3-9.6a22.77 22.77 0 0 0 17.9 9.59c12 0 19.9-7.86 20.78-20.58.07-1 .27-1.5 1-1.37a12.89 12.89 0 0 0 4.23.24c-1.1 3.5-2.1 6.8-2.93 9.8-2.36 8.4 1.33 11.9 6.75 11.9 5.2 0 8.48-2.73 10.12-8.48l3.08-10.87c1.75-6.35 4.8-9.16 7.35-9.16 1 0 1.23 1.23.62 3-1 3.14-3.62 12-3.62 16.34 0 5 4.17 9.16 11.28 9.16 5.44 0 12.8-3.8 17.94-8.72A22.8 22.8 0 0 0 182 58.51c8.42 0 14.82-3.9 18.2-10.64a22.71 22.71 0 0 0 18.6 10.64c12 0 19.9-7.86 20.78-20.58.07-1 .27-1.5 1-1.37a12.38 12.38 0 0 0 3.62.28 21.84 21.84 0 0 0 2.74 7.24c-2 1.78-5.33 2.32-5.33 5.95 0 3.28 1.7 6.22 4.5 5.74a37.47 37.47 0 0 1 7.66-.75c9.23 0 12.65 9.84 21.67 9.84 6.43 0 12.92-6.9 12.92-14-.05-.96-.26-1.92-1.22-1.92zm-198-5.6c-2.8 0-6.08-1.23-6.08-6.63 0-6.84 6.3-11.55 9.43-11.55a11.4 11.4 0 0 1 4.31 8.48c-.02 3.62-3.03 9.7-7.68 9.7l.02-.01zm93.85 0c-2.8 0-6.08-1.23-6.08-6.63 0-6.84 6.3-11.55 9.43-11.55a11.4 11.4 0 0 1 4.31 8.48c-.02 3.62-3.03 9.7-7.66 9.7v-.01zm36.77 0c-2.8 0-6.08-1.23-6.08-6.63 0-6.84 6.3-11.55 9.43-11.55a11.4 11.4 0 0 1 4.31 8.48c-.02 3.62-3.02 9.7-7.67 9.7l.01-.01zm44-5.06c-3.35-.48-5.4-3.08-5.4-7.8 0-8.34 6.77-12.78 9.7-12.78 4.8 0 5.8 3.9 5.8 6.77 0 5.95-4.5 12.17-10.1 13.8l-.01-.01z" fill="#e85258" fill-rule="nonzero"/></svg>