<?xml version="1.0" encoding="UTF-8" standalone="no"?>
<svg width="290px" height="65px" viewBox="0 0 290 65" version="1.1" xmlns="http://www.w3.org/2000/svg" xmlns:xlink="http://www.w3.org/1999/xlink">
    <!-- Generator: Sketch 49.1 (51147) - http://www.bohemiancoding.com/sketch -->
    <title>logo-white</title>
    <desc>Created with Sketch.</desc>
    <defs></defs>
    <g id="Page-1" stroke="none" stroke-width="1" fill="none" fill-rule="evenodd">
        <g id="logo-white" fill="#FFFFFF" fill-rule="nonzero">
            <path d="M287.15,48.94 C286.781435,48.9663657 286.430994,49.1100464 286.15,49.35 C284.562124,50.3469606 282.743,50.915437 280.87,51 C278.82,51 275.2,50 275.2,48.88 C275.2,48.33 275.61,47.99 276.7,47.24 C284.56,41.84 289.55,31.59 289.55,22.08 C289.55,11.21 282.99,2.19 271.91,2.19 C255.91,2.19 245.83,14.49 243.84,26.27 C241.25,26.2 237.84,25.27 233.9,22.56 C234.60073,21.0836936 234.975873,19.4739892 235,17.84 C235,16.27 233.15,10.66 223,10.66 C213.50302,10.6344309 204.829631,16.0475274 200.68,24.59 C199.454527,24.0195908 198.277335,23.3507315 197.16,22.59 C197.857278,21.1129223 198.229002,19.5032525 198.25,17.87 C198.25,16.3 196.4,10.69 186.25,10.69 C172.37,10.69 160.82,21.83 160.82,38.37 C160.821697,39.3278836 160.8986,40.2841554 161.05,41.23 C159.587945,42.1347547 157.95907,42.7366564 156.26,43 C152.84,43 153.18,39.58 154,36.16 C156.8,25.02 157.28,23.72 157.28,20.57 C157.28,15.37 154.75,11.57 148.39,11.57 C144.367903,11.5966653 140.470623,12.9696909 137.32,15.47 C135.88,16.47 135.54,16.63 134.93,15.33 C133.43,12.12 132.06,9.93 128.64,9.93 C125.22,9.93 123.03,11.57 120.78,17.59 C119.786667,20.2566667 118.85,22.8366667 117.97,25.33 C115.72,26.33 110.54,27.5 103.29,22.51 C103.986982,21.0328196 104.358691,19.4232151 104.38,17.79 C104.38,16.22 102.53,10.61 92.38,10.61 C78.5,10.61 66.95,21.75 66.95,38.29 C66.9505624,38.9246336 66.9839403,39.5588136 67.05,40.19 C64.71,41.61 62.33,42.8 60.93,42.8 C58.4,42.8 58.2,40.54 58.2,39.38 C58.2,36.65 59.91,31.93 61.75,26.73 C64.96,16.73 66.95,9.37 59.49,9.37 C52.72,9.37 47.19,17.03 42.33,17.03 C39.12,17.03 39.19,14.5 38.64,8.83 C38.35,4 37.39,0 33.22,0 C30.9,0 28.98,1.23 27.22,3 C23.65,6.7 16.34,17.57 11.62,25.57 C6.36,34.52 0,45.12 0,51.06 C0,55.64 2.46,58.51 7.31,58.51 C15.1,58.51 18.38,55.43 21.05,49.14 C22.76,44.56 25.05,39.14 27.05,34.92 C27.32,34.44 27.67,34.17 27.94,34.17 C28.49,34.17 28.62,34.65 28.76,35.33 C29.76,39.33 35.76,39.77 42.64,34.58 C43.32,34.03 44.01,33.76 43.73,34.92 C43.25,37.38 40.11,43.33 40.11,49.21 C40.11,55.43 45.44,58.37 50.98,58.51 C58.22,58.66 65.18,53.87 70.27,48.92 C74.401931,54.7476308 81.02932,58.2982823 88.17,58.51 C100.17,58.51 108.06,50.65 108.95,37.93 C109.02,36.93 109.22,36.43 109.95,36.56 C111.337111,36.8727644 112.766414,36.9538596 114.18,36.8 C113.07,40.3 112.09,43.59 111.25,46.61 C108.89,55 112.58,58.51 118,58.51 C123.2,58.51 126.48,55.78 128.12,50.03 L131.2,39.16 C132.95,32.81 136,30 138.55,30 C139.55,30 139.78,31.23 139.17,33 C138.17,36.14 135.55,45 135.55,49.34 C135.55,54.34 139.72,58.5 146.83,58.5 C152.27,58.5 159.62,54.69 164.77,49.78 C168.936114,55.099211 175.246851,58.2967002 182,58.51 C190.42,58.51 196.82,54.61 200.2,47.87 C204.231846,54.3026266 211.211303,58.2951763 218.8,58.51 C230.8,58.51 238.69,50.65 239.58,37.93 C239.65,36.93 239.85,36.43 240.58,36.56 C241.766348,36.8307336 242.98613,36.9250814 244.2,36.84 C244.674935,39.3972359 245.602841,41.8490757 246.94,44.08 C244.94,45.86 241.61,46.4 241.61,50.03 C241.61,53.31 243.32,56.25 246.12,55.77 C248.64082,55.2577303 251.207692,55.0064048 253.78,55.02 C263.01,55.02 266.43,64.86 275.45,64.86 C281.88,64.86 288.37,57.96 288.37,50.86 C288.32,49.9 288.11,48.94 287.15,48.94 Z M89.15,43.33 C86.35,43.33 83.07,42.1 83.07,36.7 C83.07,29.86 89.36,25.15 92.5,25.15 C95.1036922,27.213596 96.6776287,30.3103435 96.81,33.63 C96.79,37.25 93.78,43.34 89.13,43.34 L89.15,43.33 Z M183,43.33 C180.2,43.33 176.92,42.1 176.92,36.7 C176.92,29.86 183.21,25.15 186.35,25.15 C188.953692,27.213596 190.527629,30.3103435 190.66,33.63 C190.64,37.25 187.63,43.34 183,43.34 L183,43.33 Z M219.77,43.33 C216.97,43.33 213.69,42.1 213.69,36.7 C213.69,29.86 219.98,25.15 223.12,25.15 C225.723692,27.213596 227.297629,30.3103435 227.43,33.63 C227.41,37.25 224.41,43.34 219.76,43.34 L219.77,43.33 Z M263.77,38.27 C260.42,37.79 258.37,35.19 258.37,30.48 C258.37,22.14 265.14,17.7 268.08,17.7 C272.87,17.7 273.89,21.6 273.89,24.47 C273.89,30.42 269.38,36.64 263.78,38.28 L263.77,38.27 Z" id="Shape"></path>
        </g>
    </g>
</svg>