<?xml version="1.0" encoding="UTF-8"?>
<svg width="340px" height="144px" viewBox="0 0 340 144" version="1.1" xmlns="http://www.w3.org/2000/svg" xmlns:xlink="http://www.w3.org/1999/xlink">
    <!-- Generator: Sketch 49 (51002) - http://www.bohemiancoding.com/sketch -->
    <title>furniture-quarter</title>
    <desc>Created with Sketch.</desc>
    <defs></defs>
    <g id="smp" stroke="none" stroke-width="1" fill="none" fill-rule="evenodd">
        <g id="ホスト登録＝場所登録／分割02／PC" transform="translate(-431.000000, -892.000000)">
            <g id="Group-6" transform="translate(432.000000, 893.000000)">
                <g id="Group-5" opacity="0.200000018" transform="translate(202.000000, 0.000000)" stroke="#000000" stroke-width="2">
                    <polygon id="Stroke-1" points="0 136.709 62.32 136.709 62.32 0 0 0"></polygon>
                    <polygon id="Stroke-2" points="5 140.984 56.973 140.984 56.973 136 5 136"></polygon>
                    <path d="M0,35 L62.32,35" id="Stroke-3"></path>
                    <path d="M49,19 L49,60.7131" id="Stroke-4"></path>
                </g>
                <g id="Group-2" opacity="0.200000018" transform="translate(78.000000, 45.000000)">
                    <polygon id="Stroke-5" stroke="#000000" stroke-width="1.5" points="47 21 66.383 21 63.109 33.5504 50.274 33.5504"></polygon>
                    <path d="M57,0 L57,19.0969" id="Stroke-6" stroke="#000000" stroke-width="1.5" stroke-linejoin="round"></path>
                    <path d="M57,4.98397989 C57,4.98397989 60.196,-0.783020112 69.861,0.0899798877 C69.861,0.0899798877 64.756,8.03807989 57,4.98397989" id="Fill-7" fill="#000000"></path>
                    <path d="M57,4.98397989 C57,4.98397989 60.196,-0.783020112 69.861,0.0899798877 C69.861,0.0899798877 64.756,8.03807989 57,4.98397989" id="Stroke-8" stroke="#000000" stroke-width="1.5" stroke-linejoin="round"></path>
                    <path d="M55.262,12.3698715 C55.262,12.3698715 48.844,13.8749715 43,6.12657146 C43,6.12657146 52.317,4.57057146 55.262,12.3698715" id="Fill-9" fill="#000000"></path>
                    <path d="M55.262,12.3698715 C55.262,12.3698715 48.844,13.8749715 43,6.12657146 C43,6.12657146 52.317,4.57057146 55.262,12.3698715" id="Stroke-10" stroke="#000000" stroke-width="1.5" stroke-linejoin="round"></path>
                    <path d="M64.803,25 L48,25" id="Stroke-11" stroke="#000000" stroke-width="1.5" stroke-linejoin="round"></path>
                    <polygon id="Stroke-18" stroke="#000000" stroke-width="2" points="0 85.229 76.166 85.229 76.166 37 0 37"></polygon>
                    <path d="M76.165,60 L0,60" id="Stroke-19" stroke="#000000" stroke-width="2" stroke-linejoin="round"></path>
                    <path d="M20.123,49.563 C20.123,50.977 18.976,52.125 17.563,52.125 C16.147,52.125 15,50.977 15,49.563 C15,48.148 16.147,47 17.563,47 C18.976,47 20.123,48.148 20.123,49.563" id="Fill-20" fill="#000000"></path>
                    <path d="M62.122,49.563 C62.122,50.977 60.976,52.125 59.562,52.125 C58.146,52.125 57,50.977 57,49.563 C57,48.148 58.146,47 59.562,47 C60.976,47 62.122,48.148 62.122,49.563" id="Fill-21" fill="#000000"></path>
                    <path d="M20.123,71.562 C20.123,72.975 18.976,74.122 17.563,74.122 C16.147,74.122 15,72.975 15,71.562 C15,70.147 16.147,69 17.563,69 C18.976,69 20.123,70.147 20.123,71.562" id="Fill-22" fill="#000000"></path>
                    <path d="M62.122,71.562 C62.122,72.975 60.976,74.122 59.562,74.122 C58.146,74.122 57,72.975 57,71.562 C57,70.147 58.146,69 59.562,69 C60.976,69 62.122,70.147 62.122,71.562" id="Fill-23" fill="#000000"></path>
                    <path d="M17,85 L17,95.485" id="Stroke-24" stroke="#000000" stroke-width="2"></path>
                    <path d="M60,85 L60,95.485" id="Stroke-25" stroke="#000000" stroke-width="2"></path>
                </g>
                <path d="M17.156,113.577 C17.156,108.841 13.316,105 8.579,105 C3.842,105 0,108.841 0,113.577 C0,116.145 1.129,118.451 2.918,120.023 C3.331,120.388 3.783,120.712 4.263,120.992 L4.263,141.011 L17.156,141.011" id="Fill-26" fill="#FFFFFF"></path>
                <path d="M70,113.577 C70,108.841 73.84,105 78.577,105 C83.314,105 87.156,108.841 87.156,113.577 C87.156,116.145 86.027,118.451 84.238,120.023 C83.825,120.388 83.374,120.712 82.894,120.992 L82.894,141.011 L70,141.011" id="Fill-28" fill="#FFFFFF"></path>
                <path d="M17.156,113.577 C17.156,108.841 13.316,105 8.579,105 C3.842,105 0,108.841 0,113.577 C0,116.145 1.129,118.451 2.918,120.023 C3.331,120.388 3.783,120.712 4.263,120.992 L4.263,141.011 L17.156,141.011" id="Stroke-27" stroke="#F1979B" stroke-width="2"></path>
                <path d="M70,113.577 C70,108.841 73.84,105 78.577,105 C83.314,105 87.156,108.841 87.156,113.577 C87.156,116.145 86.027,118.451 84.238,120.023 C83.825,120.388 83.374,120.712 82.894,120.992 L82.894,141.011 L70,141.011" id="Stroke-29" stroke="#F1979B" stroke-width="2"></path>
                <path d="M70.7607715,119.663 L70.7607715,88.941 C70.7607715,88.941 71.6237715,80 62.7097715,80 L25.0747715,80 C16.1587715,80 17.0227715,88.941 17.0227715,88.941 L17.0227715,119.663" id="Fill-30" fill="#FFFFFF"></path>
                <path d="M70.7607715,119.663 L70.7607715,88.941 C70.7607715,88.941 71.6237715,80 62.7097715,80 L25.0747715,80 C16.1587715,80 17.0227715,88.941 17.0227715,88.941 L17.0227715,119.663" id="Stroke-31" stroke="#F1979B" stroke-width="2"></path>
                <path d="M70.7607715,141.026 L70.7607715,122.94 C70.7607715,122.94 71.6237715,114 62.7097715,114 L25.0747715,114 C16.1587715,114 17.0227715,122.94 17.0227715,122.94 L17.0227715,141.026 L70.7607715,141.026 Z" id="Fill-32" fill="#FFFFFF"></path>
                <path d="M70.7607715,141.026 L70.7607715,122.94 C70.7607715,122.94 71.6237715,114 62.7097715,114 L25.0747715,114 C16.1587715,114 17.0227715,122.94 17.0227715,122.94 L17.0227715,141.026 L70.7607715,141.026 Z" id="Stroke-33" stroke="#F1979B" stroke-width="2"></path>
                <g id="Group-3" opacity="0.200000018" transform="translate(278.000000, 47.000000)">
                    <polygon id="Stroke-34" stroke="#000000" stroke-width="2" points="0 94.301 59.712 94.301 59.712 0 0 0"></polygon>
                    <path d="M39.088,60.545 C39.088,65.262 35.265,69.089 30.544,69.089 C25.825,69.089 22,65.262 22,60.545 C22,55.824 25.825,52 30.544,52 C35.265,52 39.088,55.824 39.088,60.545" id="Fill-35" fill="#000000"></path>
                    <path d="M49.028,60.515 C49.028,50.2963 40.733,42 30.514,42 C20.296,42 12,50.2963 12,60.515 C12,70.7337 20.296,79.03 30.514,79.03 C40.733,79.03 49.028,70.7337 49.028,60.515 Z" id="Stroke-36" stroke="#000000" stroke-width="2" stroke-linejoin="round"></path>
                    <path d="M34.852,17.926 C34.852,20.094 33.095,21.854 30.928,21.854 C28.759,21.854 27,20.094 27,17.926 C27,15.759 28.759,14 30.928,14 C33.095,14 34.852,15.759 34.852,17.926" id="Fill-37" fill="#000000"></path>
                </g>
                <polyline id="Fill-38" fill="#FFFFFF" points="183 70.4356 183 55 206.408 55 206.408 70.4356"></polyline>
                <polyline id="Stroke-39" stroke="#CCCCCC" stroke-width="2" stroke-linejoin="round" points="183 70.4356 183 55 206.408 55 206.408 70.4356"></polyline>
                <path d="M167,129.7778 C167,133.7645 170.234,136.9988 174.222,136.9988 L213.581,136.9988 C217.57,136.9988 220.802,133.7645 220.802,129.7778 L220.802,78.222 C220.802,74.2334 217.57,71 213.581,71 L174.222,71 C170.234,71 167,74.2334 167,78.222 L167,129.7778 Z" id="Fill-40" fill="#FFFFFF"></path>
                <path d="M167,129.7778 C167,133.7645 170.234,136.9988 174.222,136.9988 L213.581,136.9988 C217.57,136.9988 220.802,133.7645 220.802,129.7778 L220.802,78.222 C220.802,74.2334 217.57,71 213.581,71 L174.222,71 C170.234,71 167,74.2334 167,78.222 L167,129.7778 Z" id="Stroke-41" stroke="#CCCCCC" stroke-width="2"></path>
                <path d="M183,57 L206.408,57" id="Stroke-42" stroke="#CCCCCC" stroke-width="2"></path>
                <polyline id="Stroke-43" stroke="#CCCCCC" stroke-width="2" points="180.84 137 180.84 140.8435 175 140.8435 175 137"></polyline>
                <polyline id="Stroke-44" stroke="#CCCCCC" stroke-width="2" points="213.838 137 213.838 140.8435 208 140.8435 208 137"></polyline>
                <g id="Group-4" opacity="0.2" transform="translate(278.000000, 4.000000)" stroke="#000000" stroke-width="1.5">
                    <polygon id="Stroke-45" points="0 34.6944 59.7 34.6944 59.7 0 0 0"></polygon>
                    <polygon id="Stroke-46" points="4 30.7492 43.4376 30.7492 43.4376 4 4 4"></polygon>
                    <polyline id="Stroke-47" points="43.472 8 39 8 39 26.437 43.472 26.437"></polyline>
                    <polygon id="Stroke-48" points="47 10.7544 56.3949 10.7544 56.3949 4 47 4"></polygon>
                    <path d="M47,19 L56.395,19" id="Stroke-49"></path>
                    <path d="M47,23 L56.395,23" id="Stroke-50"></path>
                    <path d="M47,26 L56.395,26" id="Stroke-51"></path>
                </g>
            </g>
        </g>
    </g>
</svg>