<?xml version="1.0" encoding="UTF-8"?>
<svg width="340px" height="144px" viewBox="0 0 340 144" version="1.1" xmlns="http://www.w3.org/2000/svg" xmlns:xlink="http://www.w3.org/1999/xlink">
    <!-- Generator: Sketch 49 (51002) - http://www.bohemiancoding.com/sketch -->
    <title>furniture-harf</title>
    <desc>Created with Sketch.</desc>
    <defs></defs>
    <g id="smp" stroke="none" stroke-width="1" fill="none" fill-rule="evenodd">
        <g id="ホスト登録＝場所登録／分割02／PC" transform="translate(-431.000000, -688.000000)">
            <polyline id="Stroke-43" stroke="#F1979B" stroke-width="2" points="613 826 613 830 607 830 607 826"></polyline>
            <polyline id="Stroke-44" stroke="#F1979B" stroke-width="2" points="646 826 646 830 640 830 640 826"></polyline>
            <g id="Group" transform="translate(432.000000, 689.000000)">
                <g id="Group-5" opacity="0.200000018" transform="translate(202.000000, 0.000000)" stroke="#000000" stroke-width="2">
                    <polygon id="Stroke-1" points="0 136.709 62.32 136.709 62.32 0 0 0"></polygon>
                    <polygon id="Stroke-2" points="5 140.984 56.973 140.984 56.973 136 5 136"></polygon>
                    <path d="M0,35 L62.32,35" id="Stroke-3"></path>
                    <path d="M49,19 L49,60.7131" id="Stroke-4"></path>
                </g>
                <polygon id="Stroke-5" stroke="#F1979B" stroke-width="1.5" points="125 66 144.383 66 141.109 78.5504 128.274 78.5504"></polygon>
                <path d="M135,45 L135,64.0969" id="Stroke-6" stroke="#F1979B" stroke-width="1.5" stroke-linejoin="round"></path>
                <path d="M135,49.9839799 C135,49.9839799 138.196,44.2169799 147.861,45.0899799 C147.861,45.0899799 142.756,53.0380799 135,49.9839799" id="Fill-7" fill="#F1979B"></path>
                <path d="M135,49.9839799 C135,49.9839799 138.196,44.2169799 147.861,45.0899799 C147.861,45.0899799 142.756,53.0380799 135,49.9839799" id="Stroke-8" stroke="#F1979B" stroke-width="1.5" stroke-linejoin="round"></path>
                <path d="M133.262,57.3698715 C133.262,57.3698715 126.844,58.8749715 121,51.1265715 C121,51.1265715 130.317,49.5705715 133.262,57.3698715" id="Fill-9" fill="#F1979B"></path>
                <path d="M133.262,57.3698715 C133.262,57.3698715 126.844,58.8749715 121,51.1265715 C121,51.1265715 130.317,49.5705715 133.262,57.3698715" id="Stroke-10" stroke="#F1979B" stroke-width="1.5" stroke-linejoin="round"></path>
                <path d="M142.803,70 L126,70" id="Stroke-11" stroke="#F1979B" stroke-width="1.5" stroke-linejoin="round"></path>
                <polygon id="Stroke-18" stroke="#F1979B" stroke-width="2" points="78 130.229 154.166 130.229 154.166 82 78 82"></polygon>
                <path d="M154.165,105 L78,105" id="Stroke-19" stroke="#F1979B" stroke-width="2" stroke-linejoin="round"></path>
                <path d="M98.123,94.563 C98.123,95.977 96.976,97.125 95.563,97.125 C94.147,97.125 93,95.977 93,94.563 C93,93.148 94.147,92 95.563,92 C96.976,92 98.123,93.148 98.123,94.563" id="Fill-20" fill="#F1979B"></path>
                <path d="M140.122,94.563 C140.122,95.977 138.976,97.125 137.562,97.125 C136.146,97.125 135,95.977 135,94.563 C135,93.148 136.146,92 137.562,92 C138.976,92 140.122,93.148 140.122,94.563" id="Fill-21" fill="#F1979B"></path>
                <path d="M98.123,116.562 C98.123,117.975 96.976,119.122 95.563,119.122 C94.147,119.122 93,117.975 93,116.562 C93,115.147 94.147,114 95.563,114 C96.976,114 98.123,115.147 98.123,116.562" id="Fill-22" fill="#F1979B"></path>
                <path d="M140.122,116.562 C140.122,117.975 138.976,119.122 137.562,119.122 C136.146,119.122 135,117.975 135,116.562 C135,115.147 136.146,114 137.562,114 C138.976,114 140.122,115.147 140.122,116.562" id="Fill-23" fill="#F1979B"></path>
                <path d="M95,130 L95,140.485" id="Stroke-24" stroke="#F1979B" stroke-width="2"></path>
                <path d="M138,130 L138,140.485" id="Stroke-25" stroke="#F1979B" stroke-width="2"></path>
                <path d="M17.156,113.577 C17.156,108.841 13.316,105 8.579,105 C3.842,105 0,108.841 0,113.577 C0,116.145 1.129,118.451 2.918,120.023 C3.331,120.388 3.783,120.712 4.263,120.992 L4.263,141.011 L17.156,141.011" id="Fill-26" fill="#FFFFFF"></path>
                <path d="M70,113.577 C70,108.841 73.84,105 78.577,105 C83.314,105 87.156,108.841 87.156,113.577 C87.156,116.145 86.027,118.451 84.238,120.023 C83.825,120.388 83.374,120.712 82.894,120.992 L82.894,141.011 L70,141.011" id="Fill-28" fill="#FFFFFF"></path>
                <path d="M17.156,113.577 C17.156,108.841 13.316,105 8.579,105 C3.842,105 0,108.841 0,113.577 C0,116.145 1.129,118.451 2.918,120.023 C3.331,120.388 3.783,120.712 4.263,120.992 L4.263,141.011 L17.156,141.011" id="Stroke-27" stroke="#F1979B" stroke-width="2"></path>
                <path d="M70,113.577 C70,108.841 73.84,105 78.577,105 C83.314,105 87.156,108.841 87.156,113.577 C87.156,116.145 86.027,118.451 84.238,120.023 C83.825,120.388 83.374,120.712 82.894,120.992 L82.894,141.011 L70,141.011" id="Stroke-29" stroke="#F1979B" stroke-width="2"></path>
                <path d="M70.7607715,119.663 L70.7607715,88.941 C70.7607715,88.941 71.6237715,80 62.7097715,80 L25.0747715,80 C16.1587715,80 17.0227715,88.941 17.0227715,88.941 L17.0227715,119.663" id="Fill-30" fill="#FFFFFF"></path>
                <path d="M70.7607715,119.663 L70.7607715,88.941 C70.7607715,88.941 71.6237715,80 62.7097715,80 L25.0747715,80 C16.1587715,80 17.0227715,88.941 17.0227715,88.941 L17.0227715,119.663" id="Stroke-31" stroke="#F1979B" stroke-width="2"></path>
                <path d="M70.7607715,141.026 L70.7607715,122.94 C70.7607715,122.94 71.6237715,114 62.7097715,114 L25.0747715,114 C16.1587715,114 17.0227715,122.94 17.0227715,122.94 L17.0227715,141.026 L70.7607715,141.026 Z" id="Fill-32" stroke="#F1979B" stroke-width="2"></path>
                <path d="M70.7607715,141.026 L70.7607715,122.94 C70.7607715,122.94 71.6237715,114 62.7097715,114 L25.0747715,114 C16.1587715,114 17.0227715,122.94 17.0227715,122.94 L17.0227715,141.026 L70.7607715,141.026 Z" id="Stroke-33" stroke="#F1979B" stroke-width="2"></path>
                <g id="Group-3" opacity="0.200000018" transform="translate(278.000000, 47.000000)">
                    <polygon id="Stroke-34" stroke="#000000" stroke-width="2" points="0 94.301 59.712 94.301 59.712 0 0 0"></polygon>
                    <path d="M39.088,60.545 C39.088,65.262 35.265,69.089 30.544,69.089 C25.825,69.089 22,65.262 22,60.545 C22,55.824 25.825,52 30.544,52 C35.265,52 39.088,55.824 39.088,60.545" id="Fill-35" fill="#000000"></path>
                    <path d="M49.028,60.515 C49.028,50.2963 40.733,42 30.514,42 C20.296,42 12,50.2963 12,60.515 C12,70.7337 20.296,79.03 30.514,79.03 C40.733,79.03 49.028,70.7337 49.028,60.515 Z" id="Stroke-36" stroke="#000000" stroke-width="2" stroke-linejoin="round"></path>
                    <path d="M34.852,17.926 C34.852,20.094 33.095,21.854 30.928,21.854 C28.759,21.854 27,20.094 27,17.926 C27,15.759 28.759,14 30.928,14 C33.095,14 34.852,15.759 34.852,17.926" id="Fill-37" fill="#000000"></path>
                </g>
                <polyline id="Fill-38" fill="#FFFFFF" points="183 70.4356 183 55 206.408 55 206.408 70.4356"></polyline>
                <polyline id="Stroke-39" stroke="#F1979B" stroke-width="2" fill="#FFFFFF" stroke-linejoin="round" points="183 70.4356 183 55 206.408 55 206.408 70.4356"></polyline>
                <path d="M167,129.7778 C167,133.7645 170.234,136.9988 174.222,136.9988 L213.581,136.9988 C217.57,136.9988 220.802,133.7645 220.802,129.7778 L220.802,78.222 C220.802,74.2334 217.57,71 213.581,71 L174.222,71 C170.234,71 167,74.2334 167,78.222 L167,129.7778 Z" id="Stroke-41" stroke="#F1979B" stroke-width="2" fill="#FFFFFF"></path>
                <path d="M183,57 L206.408,57" id="Stroke-42" stroke="#F1979B" stroke-width="2"></path>
                <g id="Group-4" opacity="0.2" transform="translate(278.000000, 4.000000)" stroke="#000000" stroke-width="1.5">
                    <polygon id="Stroke-45" points="0 34.6944 59.7 34.6944 59.7 0 0 0"></polygon>
                    <polygon id="Stroke-46" points="4 30.7492 43.4376 30.7492 43.4376 4 4 4"></polygon>
                    <polyline id="Stroke-47" points="43.472 8 39 8 39 26.437 43.472 26.437"></polyline>
                    <polygon id="Stroke-48" points="47 10.7544 56.3949 10.7544 56.3949 4 47 4"></polygon>
                    <path d="M47,19 L56.395,19" id="Stroke-49"></path>
                    <path d="M47,23 L56.395,23" id="Stroke-50"></path>
                    <path d="M47,26 L56.395,26" id="Stroke-51"></path>
                </g>
            </g>
        </g>
    </g>
</svg>