<?xml version="1.0" encoding="UTF-8"?>
<svg width="215px" height="60px" viewBox="0 0 215 60" version="1.1" xmlns="http://www.w3.org/2000/svg" xmlns:xlink="http://www.w3.org/1999/xlink">
    <!-- Generator: Sketch 42 (36781) - http://www.bohemiancoding.com/sketch -->
    <title>elements / logo / combine</title>
    <desc>Created with Sketch.</desc>
    <defs></defs>
    <g id="Symbols" stroke="none" stroke-width="1" fill="none" fill-rule="evenodd">
        <g id="elements-/-logo-/-combine" fill="#3DBDA3">
            <g id="elements-/-logo-/-mark" transform="translate(9.000200, 7.999700)">
                <path d="M6.90134154,22.0002278 C6.90134154,13.6613485 13.6605928,6.90209721 21.9994722,6.90209721 C30.3383515,6.90209721 37.0988585,13.6613485 37.0988585,22.0002278 C37.0988585,25.2825393 36.0403318,28.3112063 34.2610528,30.7886357 L25.235324,21.7629069 C23.9934701,20.521053 21.9831485,20.5223087 20.7412946,21.7629069 C19.5006964,23.0035051 19.5006964,25.0150824 20.7412946,26.2569363 L29.5472818,35.0629235 C27.3260083,36.3499814 24.7531482,37.0983585 21.9994722,37.0983585 C13.6605928,37.0983585 6.90134154,30.3391072 6.90134154,22.0002278 M37.6450733,-0.0003 L6.35387107,-0.0003 C2.84553965,-0.0003 0.0002,2.84503965 0.0002,6.35462674 L0.0002,37.6458289 C0.0002,41.155416 2.84553965,44.0007557 6.35387107,44.0007557 L37.6450733,44.0007557 C41.1546603,44.0007557 44,41.155416 44,37.6458289 L44,6.35462674 C44,2.84503965 41.1546603,-0.0003 37.6450733,-0.0003" id="Fill-1"></path>
            </g>
            <g id="elements-/-logo-/-type" transform="translate(68.000000, 10.000000)">
                <g id="Page-1-Copy" transform="translate(3.000000, 6.000000)">
                    <path d="M121.758663,20.06394 L124.169749,17.2064733 L127.299691,19.7604067 C127.556149,18.8266067 127.68632,16.90294 127.68632,13.9894067 C127.68632,11.2788733 127.593063,9.43060667 127.408491,8.44654 C127.214206,7.51274 126.850891,6.74907333 126.324377,6.15747333 C125.920263,5.59100667 125.378206,5.11734 124.704034,4.73840667 C123.991006,4.37300667 123.151691,4.17580667 122.182206,4.15260667 C121.224377,4.17580667 120.402549,4.37300667 119.714777,4.73840667 C119.015349,5.11734 118.45192,5.59100667 118.020606,6.15747333 C117.494091,6.74907333 117.144377,7.51467333 116.971463,8.44654 C116.777177,9.43060667 116.678091,11.2788733 116.678091,13.9894067 C116.678091,16.7018733 116.777177,18.5366067 116.971463,19.49554 C117.144377,20.4544733 117.494091,21.2316733 118.020606,21.8232733 C118.45192,22.38974 119.015349,22.8498733 119.714777,23.2036733 C120.402549,23.6212733 121.224377,23.82814 122.182206,23.82814 C123.433406,23.82814 124.433977,23.5072067 125.181977,22.8634067 L121.758663,20.06394 Z M128.512034,25.5932733 C126.930549,27.13414 124.824491,27.92874 122.19192,27.98094 C120.085863,27.92874 118.327577,27.40094 116.920949,26.3936733 C115.485177,25.4250733 114.445749,24.30374 113.796834,23.03354 C113.600606,22.6178733 113.423806,22.22154 113.264491,21.84454 C113.116834,21.4540067 112.994434,20.96294 112.895349,20.37134 C112.71272,19.26354 112.621406,17.1368733 112.621406,13.9894067 C112.621406,10.7936067 112.71272,8.65340667 112.895349,7.57074 C113.091577,6.49000667 113.39272,5.61227333 113.796834,4.94720667 C114.445749,3.67507333 115.485177,2.54214 116.919006,1.54840667 C118.327577,0.54114 120.085863,0.02494 122.19192,-0.000193333333 C124.321291,0.02494 126.097063,0.54114 127.519234,1.54840667 C128.925863,2.54214 129.94392,3.67507333 130.567577,4.94720667 C131.020263,5.61227333 131.333063,6.49000667 131.504034,7.57074 C131.663349,8.65340667 131.743006,10.7936067 131.743006,13.9894067 C131.743006,16.8468733 131.680834,18.8420733 131.558434,19.9750067 C131.39912,21.10794 131.136834,21.98954 130.769634,22.6178733 L134.307577,25.5062733 L131.898434,28.3772733 L128.512034,25.5932733 Z M104.370091,17.9740067 C104.370091,16.57234 104.309863,15.5496067 104.18552,14.9058067 C104.06312,14.28714 103.810549,13.74194 103.429749,13.2760067 C103.148034,12.8352067 102.73032,12.4872067 102.178549,12.23394 C101.648149,11.9690733 101.036149,11.8356733 100.33672,11.8356733 C99.6858629,11.8356733 99.0835771,11.9690733 98.5318057,12.23394 C98.0014057,12.4872067 97.5739771,12.8352067 97.2417486,13.2760067 C96.90952,13.74194 96.6705486,14.28714 96.5248343,14.9058067 C96.3771771,15.5496067 96.3014057,16.56074 96.3014057,17.93534 C96.3014057,19.29834 96.3771771,20.2978733 96.5248343,20.92814 C96.6705486,21.5738733 96.90952,22.1422733 97.2417486,22.63334 C97.5739771,23.0122733 98.0014057,23.34674 98.5318057,23.6386733 C99.0835771,23.91514 99.6858629,24.05434 100.33672,24.05434 C101.036149,24.05434 101.648149,23.91514 102.178549,23.6386733 C102.73032,23.34674 103.148034,23.0122733 103.429749,22.63334 C103.810549,22.1422733 104.06312,21.5738733 104.18552,20.92814 C104.309863,20.2978733 104.370091,19.3118733 104.370091,17.9740067 L104.370091,17.9740067 Z M92.4739771,17.93534 C92.4739771,15.8686067 92.63912,14.2794067 92.9694057,13.1696733 C93.3113486,12.0850733 93.8398057,11.1706067 94.5489486,10.4282067 C95.0774057,9.77667333 95.8137486,9.19474 96.7560343,8.68047333 C97.6866629,8.19134 98.88152,7.93614 100.340606,7.91100667 C101.84632,7.93614 103.064491,8.19327333 103.99512,8.68434 C104.916034,9.20054 105.625177,9.78634 106.128377,10.4398067 C106.886091,11.1822067 107.42232,12.0966733 107.740949,13.1774067 C108.045977,14.28714 108.199463,15.8724733 108.199463,17.93534 C108.199463,20.00014 108.044034,21.5738733 107.739006,22.65654 C107.420377,23.7372733 106.882206,24.6768733 106.122549,25.46954 C105.877749,25.7576067 105.578549,26.0418067 105.221063,26.3182733 C104.904377,26.6334067 104.492491,26.9040733 103.991234,27.1302733 C103.060606,27.67354 101.842434,27.9558067 100.33672,27.98094 C98.8795771,27.9558067 97.68472,27.67354 96.7540914,27.1302733 C95.8118057,26.6392067 95.0754629,26.0862733 94.5489486,25.46954 C93.8398057,24.6768733 93.3113486,23.7372733 92.9694057,22.65654 C92.63912,21.5738733 92.4739771,20.00014 92.4739771,17.93534 L92.4739771,17.93534 Z M84.6578629,17.9740067 C84.6578629,16.57234 84.5976343,15.5496067 84.4752343,14.9058067 C84.3508914,14.28714 84.09832,13.74194 83.7194629,13.2760067 C83.4358057,12.8352067 83.0200343,12.4872067 82.46632,12.23394 C81.9378629,11.9690733 81.32392,11.8356733 80.6244914,11.8356733 C79.9736343,11.8356733 79.3732914,11.9690733 78.8195771,12.23394 C78.29112,12.4872067 77.8617486,12.8352067 77.52952,13.2760067 C77.1972914,13.74194 76.95832,14.28714 76.8126057,14.9058067 C76.6649486,15.5496067 76.59112,16.56074 76.59112,17.93534 C76.59112,19.29834 76.6649486,20.2978733 76.8126057,20.92814 C76.95832,21.5738733 77.1972914,22.1422733 77.52952,22.63334 C77.8617486,23.0122733 78.29112,23.34674 78.8195771,23.6386733 C79.3732914,23.91514 79.9736343,24.05434 80.6244914,24.05434 C81.32392,24.05434 81.9378629,23.91514 82.46632,23.6386733 C83.0200343,23.34674 83.4358057,23.0122733 83.7194629,22.63334 C84.09832,22.1422733 84.3508914,21.5738733 84.4752343,20.92814 C84.5976343,20.2978733 84.6578629,19.3118733 84.6578629,17.9740067 L84.6578629,17.9740067 Z M72.7617486,17.93534 C72.7617486,15.8686067 72.9268914,14.2794067 73.2571771,13.1696733 C73.6010629,12.0850733 74.1275771,11.1706067 74.8386629,10.4282067 C75.3651771,9.77667333 76.10152,9.19474 77.0438057,8.68047333 C77.9763771,8.19134 79.1692914,7.93614 80.6283771,7.91100667 C82.1340914,7.93614 83.3522629,8.19327333 84.2848343,8.68434 C85.2057486,9.20054 85.9148914,9.78634 86.4180914,10.4398067 C87.1738629,11.1822067 87.7120343,12.0966733 88.0306629,13.1774067 C88.3356914,14.28714 88.4872343,15.8724733 88.4872343,17.93534 C88.4872343,20.00014 88.3337486,21.5738733 88.02872,22.65654 C87.7100914,23.7372733 87.1699771,24.6768733 86.4122629,25.46954 C86.1674629,25.7576067 85.86632,26.0418067 85.5107771,26.3182733 C85.1940914,26.6334067 84.7822057,26.9040733 84.2809486,27.1302733 C83.3483771,27.67354 82.1321486,27.9558067 80.6244914,27.98094 C79.1673486,27.9558067 77.9744343,27.67354 77.0418629,27.1302733 C76.0995771,26.6392067 75.3632343,26.0862733 74.8386629,25.46954 C74.1275771,24.6768733 73.6010629,23.7372733 73.2571771,22.65654 C72.9268914,21.5738733 72.7617486,20.00014 72.7617486,17.93534 L72.7617486,17.93534 Z M52.7814057,8.15654 L56.6107771,8.15654 L56.6107771,10.23294 L56.6846057,10.23294 C57.94552,8.68434 59.5969486,7.91100667 61.6427771,7.91100667 C63.2203771,7.91100667 64.6658629,8.48327333 65.9753486,9.62974 C67.2731771,10.7858733 67.9531771,12.4852733 68.0134057,14.7260067 L68.0134057,27.75474 L64.1840343,27.75474 L64.1840343,16.0716067 C64.1840343,14.69894 63.8284914,13.6510733 63.1174057,12.9338067 C62.41992,12.2030067 61.5184343,11.8356733 60.4148914,11.8356733 C59.3132914,11.8356733 58.4059771,12.2030067 57.6948914,12.9338067 C56.9721486,13.6510733 56.6107771,14.69894 56.6107771,16.0716067 L56.6107771,27.75474 L52.7814057,27.75474 L52.7814057,8.15654 Z M44.1337486,17.9740067 C44.1337486,16.57234 44.0715771,15.5496067 43.9491771,14.9058067 C43.8267771,14.28714 43.5742057,13.74194 43.1934057,13.2760067 C42.9116914,12.8352067 42.4939771,12.4872067 41.9422057,12.23394 C41.4137486,11.9690733 40.7998057,11.8356733 40.1003771,11.8356733 C39.44952,11.8356733 38.8472343,11.9690733 38.2954629,12.23394 C37.7670057,12.4872067 37.3376343,12.8352067 37.0054057,13.2760067 C36.67512,13.74194 36.4342057,14.28714 36.2865486,14.9058067 C36.1408343,15.5496067 36.0670057,16.56074 36.0670057,17.93534 C36.0670057,19.29834 36.1408343,20.2978733 36.2865486,20.92814 C36.4342057,21.5738733 36.67512,22.1422733 37.0054057,22.63334 C37.3376343,23.0122733 37.7670057,23.34674 38.2954629,23.6386733 C38.8472343,23.91514 39.44952,24.05434 40.1003771,24.05434 C40.7998057,24.05434 41.4137486,23.91514 41.9422057,23.6386733 C42.4939771,23.34674 42.9116914,23.0122733 43.1934057,22.63334 C43.5742057,22.1422733 43.8267771,21.5738733 43.9491771,20.92814 C44.0715771,20.2978733 44.1337486,19.3118733 44.1337486,17.9740067 L44.1337486,17.9740067 Z M32.2376343,17.93534 C32.2376343,15.8686067 32.4027771,14.2794067 32.7330629,13.1696733 C33.0769486,12.0850733 33.6034629,11.1706067 34.3145486,10.4282067 C34.8410629,9.77667333 35.5754629,9.19474 36.5196914,8.68047333 C37.45032,8.19134 38.6451771,7.93614 40.10232,7.91100667 C41.6099771,7.93614 42.8300914,8.19327333 43.76072,8.68434 C44.6796914,9.20054 45.3888343,9.78634 45.8920343,10.4398067 C46.6497486,11.1822067 47.1859771,12.0966733 47.5046057,13.1774067 C47.8096343,14.28714 47.96312,15.8724733 47.96312,17.93534 C47.96312,20.00014 47.8096343,21.5738733 47.5026629,22.65654 C47.1840343,23.7372733 46.6458629,24.6768733 45.8862057,25.46954 C45.6414057,25.7576067 45.3402629,26.0418067 44.9866629,26.3182733 C44.6680343,26.6334067 44.2580914,26.9040733 43.7548914,27.1302733 C42.8242629,27.67354 41.6060914,27.9558067 40.1003771,27.98094 C38.6432343,27.9558067 37.4483771,27.67354 36.5177486,27.1302733 C35.5754629,26.6392067 34.83912,26.0862733 34.3126057,25.46954 C33.60152,24.6768733 33.0750057,23.7372733 32.7330629,22.65654 C32.4027771,21.5738733 32.2376343,20.00014 32.2376343,17.93534 L32.2376343,17.93534 Z M-0.000194285714,8.15654 L3.83694857,8.15654 L3.83694857,10.23294 L3.90883429,10.23294 C5.21249143,8.68434 6.92803429,7.91100667 9.05157714,7.91100667 C10.4174057,7.93614 11.5190057,8.17007333 12.3524914,8.60894 C13.1762629,9.10000667 13.9281486,9.72254 14.6120343,10.4784733 C16.1546629,8.74234 18.2238057,7.88587333 20.8155771,7.91100667 C22.4475771,7.91100667 23.9416343,8.48327333 25.2958057,9.62974 C26.6363771,10.7858733 27.3299771,12.4852733 27.3824343,14.7260067 L27.3824343,27.75474 L23.5491771,27.75474 L23.5491771,16.0716067 C23.5491771,14.69894 23.1819771,13.6510733 22.44952,12.9338067 C21.71512,12.2030067 20.7689486,11.8356733 19.6110057,11.8356733 C18.4530629,11.8356733 17.5010629,12.2030067 16.7550057,12.9338067 C15.9934057,13.6510733 15.6145486,14.69894 15.6145486,16.0716067 L15.6145486,27.75474 L11.7851771,27.75474 L11.7851771,16.0716067 C11.7851771,14.69894 11.41992,13.6510733 10.68552,12.9338067 C9.93946286,12.2030067 8.98746286,11.8356733 7.82757714,11.8356733 C6.66963429,11.8356733 5.72346286,12.2030067 4.99100571,12.9338067 C4.21774857,13.6510733 3.83306286,14.69894 3.83306286,16.0716067 L3.83306286,27.75474 L-0.000194285714,27.75474 L-0.000194285714,8.15654 Z" id="Fill-1"></path>
                </g>
            </g>
        </g>
    </g>
</svg>