<?xml version="1.0" encoding="UTF-8"?>
<svg width="215px" height="60px" viewBox="0 0 215 60" version="1.1" xmlns="http://www.w3.org/2000/svg" xmlns:xlink="http://www.w3.org/1999/xlink">
    <!-- Generator: Sketch 42 (36781) - http://www.bohemiancoding.com/sketch -->
    <title>elements / logo / combine</title>
    <desc>Created with Sketch.</desc>
    <defs></defs>
    <g id="Symbols" stroke="none" stroke-width="1" fill="none" fill-rule="evenodd">
        <g id="elements-/-logo-/-combine" fill="#3DBDA3">
            <g id="elements-/-logo-/-mark" transform="translate(9.000200, 7.999700)">
                <path d="M6.90134154,22.0002278 C6.90134154,13.6613485 13.6605928,6.90209721 21.9994722,6.90209721 C30.3383515,6.90209721 37.0988585,13.6613485 37.0988585,22.0002278 C37.0988585,25.2825393 36.0403318,28.3112063 34.2610528,30.7886357 L25.235324,21.7629069 C23.9934701,20.521053 21.9831485,20.5223087 20.7412946,21.7629069 C19.5006964,23.0035051 19.5006964,25.0150824 20.7412946,26.2569363 L29.5472818,35.0629235 C27.3260083,36.3499814 24.7531482,37.0983585 21.9994722,37.0983585 C13.6605928,37.0983585 6.90134154,30.3391072 6.90134154,22.0002278 M37.6450733,-0.0003 L6.35387107,-0.0003 C2.84553965,-0.0003 0.0002,2.84503965 0.0002,6.35462674 L0.0002,37.6458289 C0.0002,41.155416 2.84553965,44.0007557 6.35387107,44.0007557 L37.6450733,44.0007557 C41.1546603,44.0007557 44,41.155416 44,37.6458289 L44,6.35462674 C44,2.84503965 41.1546603,-0.0003 37.6450733,-0.0003" id="Fill-1"></path>
            </g>
        </g>
    </g>
</svg>