<?xml version="1.0" encoding="UTF-8"?>
<svg width="76px" height="60px" viewBox="0 0 76 60" version="1.1" xmlns="http://www.w3.org/2000/svg" xmlns:xlink="http://www.w3.org/1999/xlink">
    <!-- Generator: Sketch 49 (51002) - http://www.bohemiancoding.com/sketch -->
    <title>rule-img03</title>
    <desc>Created with Sketch.</desc>
    <defs></defs>
    <g id="smp" stroke="none" stroke-width="1" fill="none" fill-rule="evenodd">
        <g id="ルールとマナー" transform="translate(-963.000000, -1850.000000)" fill="#E85258">
            <g id="Group" transform="translate(963.000000, 1850.000000)">
                <path d="M54.4541,12.9545902 C57.5814,14.8819672 62.3837,17.0961639 68.8509,17.9808197 C64.5144,14.6412787 61.5995,11.5212787 59.7749,9.24777049 C61.6979,7.64783607 63.4638,5.87232787 65.0264,3.93 L59.9815,0 C57.1156,3.56016393 53.4676,6.48285246 49.2994,8.51340984 C45.1291,10.5429836 40.4445,11.6847541 35.4647,11.6858361 C30.4848,11.6847541 25.7992,10.5429836 21.6289,8.51340984 C17.4607,6.48285246 13.8121,3.56016393 10.9478,0 L5.9018,3.93 C7.1218,5.44583607 8.4665,6.85957377 9.9091,8.17111475 C8.1938,10.4747213 5.0686,14.0761967 0,17.9808197 C7.2003,16.9956393 12.3372,14.3624262 15.3941,12.3127869 C16.486,12.991082 17.6102,13.6200984 18.7721,14.1856721 C18.9404,14.2672131 19.111,14.3465902 19.2804,14.4242951 C18.7877,17.3014426 17.5774,22.4272131 14.768,26.9497377 C20.2325,24.5657705 24.0828,19.7595738 26.0348,16.8411148 C27.4979,17.2120328 28.9943,17.4982623 30.5198,17.6956721 L34.4238,32.6119672 L38.2725,17.9099016 C39.9115,17.7908852 41.5219,17.5718361 43.0969,17.2533443 C45.1242,20.1955082 48.868,24.6741639 54.0824,26.9497377 C51.5284,22.8388525 50.2961,18.2289836 49.7233,15.2634098 C50.5484,14.9311475 51.3612,14.5740984 52.1562,14.1856721 C52.9399,13.8037377 53.7021,13.387377 54.4541,12.9545902" id="Fill-1"></path>
                <path d="M72.1325,36.6636393 C71.3962,37.3857049 70.3901,37.83 69.2692,37.8306885 C68.1477,37.83 67.1416,37.3857049 66.4053,36.6636393 C65.6704,35.9394098 65.2195,34.9494098 65.2188,33.8472787 C65.2166,33.6538033 65.2717,33.3103279 65.395,32.900459 C65.6072,32.178 66.0109,31.2457377 66.4954,30.2831803 C67.2232,28.8361967 68.1314,27.3088525 68.8575,26.1518361 C69.004,25.9184262 69.1403,25.7051803 69.2692,25.5051148 C69.8191,26.3606557 70.5596,27.5551475 71.2563,28.804918 C71.8164,29.809377 72.3489,30.8518033 72.7303,31.7663607 C72.9217,32.2234426 73.0743,32.6479672 73.1746,33.0102295 C73.2756,33.3711148 73.3204,33.6712131 73.319,33.8472787 C73.3183,34.9494098 72.8673,35.9394098 72.1325,36.6636393 M73.9094,29.3752131 C73.1354,27.836459 72.2003,26.2685902 71.453,25.0761639 C71.0787,24.4800984 70.7528,23.9792459 70.5162,23.6241639 C70.3982,23.4470164 70.3032,23.3060656 70.234,23.2060328 L70.1478,23.083377 L70.1079,23.0302623 L70.0652,22.9774426 L69.9939,22.9027869 C69.9709,22.8805574 69.943,22.8540984 69.8745,22.8048197 C69.8388,22.7798361 69.7933,22.7492459 69.7114,22.7106885 C69.6273,22.6752787 69.5065,22.6179344 69.2692,22.6140984 C69.0923,22.6151803 68.9804,22.6512787 68.9006,22.6807869 C68.7431,22.7419672 68.688,22.7888852 68.6414,22.820459 C68.5573,22.885377 68.5358,22.9121311 68.5125,22.9340656 L68.4503,23.0048852 L68.3832,23.0941967 C68.314,23.191377 68.1925,23.3682295 68.0188,23.629082 C67.4163,24.5345902 66.2263,26.388 65.1722,28.3352459 C64.6446,29.3102951 64.1509,30.3074754 63.7787,31.2383607 C63.5922,31.7038033 63.4361,32.154 63.3231,32.5854098 C63.2105,33.0181967 63.1374,33.4305246 63.136,33.8472787 C63.1367,37.1783607 65.882,39.8786557 69.2692,39.8793443 C72.6558,39.8786557 75.4011,37.1783607 75.4018,33.8472787 C75.3997,33.3491803 75.2969,32.854918 75.1429,32.328 C74.8703,31.4117705 74.4257,30.4026885 73.9094,29.3752131" id="Fill-2"></path>
                <path d="M72.1325,56.3357705 C71.3962,57.0578361 70.3901,57.5021311 69.2692,57.5028197 C68.1477,57.5021311 67.1416,57.0578361 66.4053,56.3357705 C65.6704,55.611541 65.2195,54.621541 65.2188,53.5194098 C65.2166,53.3259344 65.2717,52.982459 65.395,52.5725902 C65.6072,51.8501311 66.0109,50.9178689 66.4954,49.9553115 C67.2232,48.5083279 68.1314,46.9809836 68.8575,45.8239672 C69.004,45.5905574 69.1403,45.3773115 69.2692,45.1772459 C69.8191,46.0327869 70.5596,47.2272787 71.2563,48.4770492 C71.8164,49.4815082 72.3489,50.5239344 72.7303,51.4384918 C72.9217,51.8955738 73.0743,52.3200984 73.1746,52.6823607 C73.2756,53.0432459 73.3204,53.3433443 73.319,53.5194098 C73.3183,54.621541 72.8673,55.611541 72.1325,56.3357705 M73.9094,49.0473443 C73.1354,47.5085902 72.2003,45.9407213 71.453,44.7482951 C71.0787,44.1522295 70.7528,43.651377 70.5162,43.2962951 C70.3982,43.1191475 70.3032,42.9781967 70.234,42.8781639 L70.1478,42.7555082 L70.1079,42.7023934 L70.0652,42.6495738 L69.9939,42.574918 C69.9709,42.5526885 69.943,42.5262295 69.8745,42.4769508 C69.8388,42.4519672 69.7933,42.421377 69.7114,42.3828197 C69.6273,42.3474098 69.5065,42.2900656 69.2692,42.2862295 C69.0923,42.2873115 68.9804,42.3234098 68.9006,42.352918 C68.7431,42.4140984 68.688,42.4610164 68.6414,42.4925902 C68.5573,42.5575082 68.5358,42.5842623 68.5125,42.6061967 L68.4503,42.6770164 L68.3832,42.7663279 C68.314,42.8635082 68.1925,43.0403607 68.0188,43.3012131 C67.4163,44.2067213 66.2263,46.0601311 65.1722,48.007377 C64.6446,48.9824262 64.1509,49.9796066 63.7787,50.9104918 C63.5922,51.3759344 63.4361,51.8261311 63.3231,52.257541 C63.2105,52.6903279 63.1374,53.1026557 63.136,53.5194098 C63.1367,56.8504918 65.882,59.5507869 69.2692,59.5514754 C72.6558,59.5507869 75.4011,56.8504918 75.4018,53.5194098 C75.3997,53.0213115 75.2969,52.5270492 75.1429,52.0001311 C74.8703,51.0839016 74.4257,50.0748197 73.9094,49.0473443" id="Fill-3"></path>
            </g>
        </g>
    </g>
</svg>